<?xml version="1.0" standalone="yes"?>
<svg xmlns="http://www.w3.org/2000/svg" width="1080" height="1310">
<path style="fill:#fafbfa; stroke:none;" d="M0 0L0 1310L1080 1310L1080 0L0 0z"/>
<path style="fill:#f2be2c; stroke:none;" d="M216 87C221.804 89.4357 228.872 87.0303 235 87.0007C249.999 86.9285 265.001 87 280 87L439 87L811 87L933 87C957.959 87 983.145 86.0383 1008 88C1001.88 84.7483 993.738 86 987 86L944 86L787 86C596.683 86 406.228 86.9801 216 87z"/>
<path style="fill:#194c68; stroke:none;" d="M227 87.4244C202.829 90.5978 178.348 94.7046 156.039 105.22C139.998 112.78 122.765 123.66 109.326 135.286C105.781 138.352 103.058 142.242 99.6605 145.442C92.0387 152.62 83.8808 160.506 77.885 169.169C72.0277 177.632 67.3837 187.555 62.7114 196.714C56.4102 209.068 50.3243 221.525 46.713 235C39.0824 263.472 40 292.79 40 322L40 433L40 811L40 996L40 1033C40 1041.04 39.4225 1049.2 41.7708 1057C44.3423 1065.54 49.3392 1072.62 55.1736 1079.24C58.8555 1083.42 63.9574 1085.02 68.9961 1086.93C84.9409 1092.96 102.159 1091 119 1091L287 1091L771 1091L926 1091L976 1091C983.969 1091 992.984 1092.17 1000.83 1090.74C1023 1086.69 1037.76 1070.81 1041.74 1048.83C1042.88 1042.53 1042 1035.39 1042 1029L1042 991L1042 871L1042 315L1042 173L1042 141C1042 135.84 1042.71 130.08 1041.73 125C1040.27 117.436 1035.45 109.489 1031.04 103.286C1017.77 84.59 994.028 87 974 87L834 87L428 87L295 87C272.817 87 248.99 84.5375 227 87.4244z"/>
<path style="fill:#f2be2c; stroke:none;" d="M211 88C212.248 88.6847 212.549 88.7489 214 89C212.751 88.3149 212.452 88.2512 211 88M1009 88C1011.21 89.8169 1013.2 90.3938 1016 91C1014.15 88.7913 1011.81 88.5591 1009 88M203 89C204.769 89.7791 206.036 89.9124 208 90C206.231 89.2211 204.964 89.0876 203 89M174 97C178.268 98.724 181.875 96.3558 186 95.0502C191.525 93.3011 197.206 92.0487 203 92L203 90C192.264 90.0297 184.091 95.4976 174 97M1016.67 91.3334C1016.22 91.778 1017.28 91.7222 1017.33 91.6666C1017.78 91.2225 1016.72 91.2777 1016.67 91.3334M1022.67 95.3334C1022.22 95.7778 1023.28 95.7222 1023.33 95.6666C1023.78 95.2224 1022.72 95.2778 1022.67 95.3334M1024 96C1025.4 98.2743 1026.51 98.9873 1029 100C1027.38 97.9562 1026.36 97.1036 1024 96M168 99C169.809 99.5743 170.069 99.4653 172 99C170.341 98.5936 169.758 98.6914 168 99M165 100C166.248 100.685 166.548 100.749 168 101C166.752 100.315 166.452 100.251 165 100M1029.33 100.667C1029.28 100.722 1029.22 101.778 1029.67 101.333C1029.72 101.277 1029.78 100.223 1029.33 100.667M163.667 101.333C163.222 101.778 164.278 101.722 164.333 101.667C164.778 101.222 163.722 101.278 163.667 101.333M160 102L160 104L163 104L163 102L160 102M1031.33 102.667C1031.28 102.722 1031.22 103.778 1031.67 103.333C1031.72 103.278 1031.78 102.222 1031.33 102.667M1032 105L1037 114C1038.39 109.775 1035.91 106.518 1032 105M152.667 106.333C152.222 106.778 153.278 106.722 153.333 106.667C153.778 106.222 152.722 106.278 152.667 106.333M139 113C143.632 114.284 149.498 110.885 152 107C147.531 108.599 143.127 110.651 139 113M136.667 115.333C136.222 115.778 137.278 115.722 137.333 115.667C137.778 115.222 136.722 115.278 136.667 115.333M1038 115L1039 120C1039.78 118.231 1039.91 116.964 1040 115L1038 115M131 120C133.357 118.906 134.599 118.166 136 116C133.515 117.013 132.402 117.726 131 120M128 120L128 122C129.635 121.455 129.455 121.635 130 120L128 120M1040.33 120.667C1040.28 120.722 1040.22 121.778 1040.67 121.333C1040.72 121.278 1040.78 120.222 1040.33 120.667M112 133C117.885 130.721 122.419 125.986 128 123C122.121 121.439 115.284 128.709 112 133M1042 125L1042 1051C1044.5 1045.05 1043 1036.42 1043 1030L1043 983L1043 821L1043 327L1043 185L1043 144C1043 138.113 1044.29 130.462 1042 125M109 135L112 134C110.222 133.045 109.978 133.234 109 135M106 136L106 138L108 138L108 136L106 136M104 138L104 140L106 140L106 138L104 138M101 144L104 142C101.86 140.882 101.473 141.749 101 144M92 152C95.4232 149.885 98.858 147.426 101 144C96.7467 145.649 93.9726 147.861 92 152M91 152C89.3732 153.767 88.669 154.728 88 157C90.0154 155.356 91.0979 154.587 91 152M86 158L86 160C87.6351 159.455 87.4549 159.635 88 158L86 158M84.3333 160.667C84.2779 160.722 84.2223 161.778 84.6667 161.333C84.7223 161.278 84.7778 160.222 84.3333 160.667M82 162L80 167C81.9137 165.394 82.8369 164.217 84 162L82 162M74 174L74 176L76 176L76 174L74 174M73 176C69.1449 180.156 66.8913 184.684 65 190C68.5865 186.946 73.303 180.859 73 176M64.3333 190.667C64.278 190.722 64.2221 191.778 64.6667 191.333C64.7224 191.278 64.7777 190.222 64.3333 190.667M63 192C59.917 197.042 56.7418 202.052 56 208C59.816 205.226 64.7635 196.652 63 192M55 208C53.8416 211.767 52.2643 215.016 52 219C54.1921 215.737 56.3413 211.877 55 208M50 219L50 224C51.0623 222.307 51.5196 220.96 52 219L50 219M49 224L49 227C49.6961 225.446 49.696 225.554 49 224M48 227C47.2776 229.418 47.0519 231.472 47 234C48.1454 231.61 48.6129 229.578 48 227M290 231C294.557 232.912 298.402 231.014 303 230.259C307.766 229.478 313.167 229.133 318 229.015C341.323 228.442 363.755 228.062 387 231C380.171 226.909 370.638 228.557 363 227.83C348.153 226.417 331.895 225.752 317 227.17C307.995 228.027 298.943 230.591 290 231z"/>
<path style="fill:#fafbfa; stroke:none;" d="M547 723L434 723C434 731.899 431.828 739.339 430.321 748C426.203 771.659 418.595 794.105 401.715 811.907C392.931 821.169 381.234 829.981 369 833.987C340.214 843.414 302.33 837.704 279.322 817.355C266.914 806.381 259.8 792.701 252.875 778C245.67 762.704 244 743.63 244 727L244 505C244 473.632 240.288 439.882 249.509 409.714C251.379 403.597 252.033 397.165 254.901 391.286C262.805 375.086 274.029 359.831 289.184 349.71C310.075 335.759 338.347 332.414 362 339.251C369.542 341.431 378.191 343.355 384.826 347.778C411.713 365.698 424.661 394.176 430.259 424.83C431.826 433.408 433.927 442.179 434 451L547 451C547 440.864 544.138 431.131 543.17 421C541.041 398.735 535.707 377.838 528.698 356.714C525.874 348.201 523.934 339.348 519.829 331.286C516.499 324.744 512.22 318.919 508.427 312.7C502.595 303.136 496.617 292.461 488.83 284.296C445.838 239.216 384.436 224.771 324 228.911C291.216 231.156 258.169 236.945 229.015 253.22C222.293 256.972 214.382 261.462 208.425 266.309C203.104 270.638 198.888 276.115 193.833 280.739C189.6 284.613 184.667 288.236 180.781 292.414C177.741 295.683 175.603 299.949 173 303.572C160.608 320.824 152.531 337.711 146.334 357.961C142.888 369.221 138.456 380.303 136.443 392.015C132.165 416.9 132 442.73 132 468L132 691C132 713.625 132.689 735.512 134.83 758C135.53 765.345 135.096 772.653 136.205 780C137.557 788.956 141.033 797.279 143.24 806C150.437 834.438 162.919 862.153 183.089 884.166C202.2 905.024 226.395 922.332 253 932.625C282.107 943.886 313.143 946 344 946C353.766 946 364.324 947.135 374 945.791C410.755 940.684 447.651 927.443 475.701 902.561C502.129 879.116 520.339 846.531 530.781 813C534.753 800.244 536.526 786.982 539.22 774C542.686 757.294 546.998 740.163 547 723z"/>
<path style="fill:#f2be2c; stroke:none;" d="M280 233C282.698 233.969 285.161 233.353 288 233C285.194 231.854 282.929 232.308 280 233M392 232C394.603 233.561 396.978 233.862 400 234C397.412 232.622 394.92 232.239 392 232M275 234C276.769 234.779 278.036 234.912 280 235C278.231 234.221 276.964 234.088 275 234M403 234C404.75 235.255 405.858 235.614 408 236C406.25 234.745 405.143 234.386 403 234M253 241C259.584 243.73 267.913 237.324 275 237L275 235C267.433 235.177 260.135 238.684 253 241M408 236L408 238L416 238C413.397 236.439 411.022 236.138 408 236M416 238C418.48 240.951 423.271 241.452 427 242C424.512 239.042 419.705 238.764 416 238M45 240L45 243C45.6961 241.446 45.6961 241.554 45 240M248 243C249.809 243.574 250.069 243.465 252 243C250.341 242.594 249.758 242.691 248 243M427 242C430.134 245.241 435.515 247.366 440 248C436.309 244.576 431.846 243.122 427 242M43 243L42 256C43.9094 252.027 44.1853 247.324 45 243L43 243M246.667 244.333C246.222 244.778 247.278 244.722 247.333 244.667C247.778 244.222 246.722 244.278 246.667 244.333M580 351L696 351L725 351C728.387 351 733.725 350.127 736.397 352.742C738.656 354.954 737.999 359.147 738 362L738 387L738 487L738 829L738 918L738 940C738 942.693 737.228 947.125 739.028 949.397C740.583 951.361 743.791 950.984 746 950.999C752.666 951.045 759.334 951 766 951L819 951C829.249 951 839.894 951.876 850 950L850 539L850 413L850 374C850 368.161 848.766 360.708 850.318 355.059C851.95 349.115 861.325 351 866 351L913 351L982 351C987.815 351 1001.67 353.553 1005.85 348.852C1009.47 344.787 1008 336.993 1008 332L1008 289L1008 260C1008 256.225 1008.98 250.743 1007.4 247.228C1005.79 243.669 1001.26 244.018 998 244.001C989.001 243.953 980 244 971 244L857 244L653 244L600 244C595.295 244 584.439 241.99 580.603 245.028C578.639 246.583 579.016 249.791 579.001 252C578.957 258.333 579 264.667 579 271L579 321C579 330.932 578.182 341.206 580 351M240 248C242.434 247.349 243.283 246.84 245 245C242.606 245.648 241.464 246.032 240 248M238.667 248.333C238.222 248.778 239.278 248.722 239.333 248.667C239.778 248.222 238.722 248.278 238.667 248.333M440.667 248.333C440.222 248.777 441.278 248.722 441.333 248.667C441.778 248.222 440.722 248.278 440.667 248.333M230 251C232.814 251.913 233.983 251.073 236 249L230 251M446 251C447.465 253.122 448.457 253.474 451 254C449.313 252.344 448.254 251.749 446 251M224 256C226.222 255.19 227.99 254.261 230 253C227.099 252.517 225.593 253.59 224 256M451.667 254.333C451.222 254.778 452.278 254.722 452.333 254.667C452.778 254.222 451.722 254.278 451.667 254.333M214 263C217.758 261.158 221.695 259.581 224 256C219.844 257.49 216.133 259.021 214 263M454 256C455.314 257.618 455.877 257.693 458 258C456.542 256.919 455.752 256.564 454 256M459 258C460.223 259.195 460.42 259.316 462 260C461.02 258.217 461.093 258.406 459 258M41 259L41 264C41.8299 261.969 41.8299 261.031 41 259M462.667 261.333C462.223 261.777 463.278 261.722 463.333 261.667C463.778 261.222 462.722 261.278 462.667 261.333M464 262C465.223 263.195 465.42 263.316 467 264C465.777 262.805 465.58 262.684 464 262M208 266C209.58 265.316 209.777 265.195 211 264C209.42 264.684 209.223 264.805 208 266M467.667 265.333C467.222 265.778 468.278 265.722 468.333 265.667C468.778 265.222 467.722 265.278 467.667 265.333M205 269C206.924 267.999 207.098 267.923 208 266C205.876 266.899 205.899 266.876 205 269M40 268C37.6357 275.999 39 285.688 39 294L39 344L39 510L39 1051C41.0851 1046.03 40 1039.35 40 1034L40 1000L40 879L40 462L40 324C40 310.667 39.9365 297.333 40.0008 284C40.0259 278.797 42.0465 272.888 40 268M471 268C472.776 270.707 475.185 272.416 478 274C476.347 270.564 474.678 269.041 471 268M202 272C203.457 270.896 203.897 270.457 205 269C202.876 269.899 202.899 269.876 202 272M192 282C196.199 279.911 199.934 276.239 202 272C197.262 273.386 193.426 277.273 192 282M478.667 274.333C478.222 274.777 479.278 274.722 479.333 274.667C479.778 274.222 478.722 274.278 478.667 274.333M480.667 276.333C480.223 276.777 481.278 276.722 481.333 276.667C481.778 276.222 480.722 276.278 480.667 276.333M483 278L483 280L485 280L485 278L483 278M485 280C485.899 282.124 485.876 282.101 488 283C487.101 280.876 487.124 280.899 485 280M186 288C188.336 286.192 190.21 284.348 192 282C188.716 283.343 187.244 284.665 186 288M491.333 286.667C491.278 286.722 491.222 287.778 491.667 287.333C491.722 287.278 491.778 286.222 491.333 286.667M182 291C183.991 290.151 184.778 289.733 186 288C183.703 288.674 183.226 288.965 182 291M492 288L492 290L494 290L494 288L492 288M494 290L494 293L496 293L496 290L494 290M496 294C497.017 296.482 497.438 297.264 500 298C498.919 295.879 498.121 295.081 496 294M177 296C174.823 298.577 173.21 300.854 172 304C174.874 302.169 177.19 299.489 177 296M500 298C500.684 299.581 500.805 299.777 502 301C501.317 299.42 501.195 299.223 500 298M502 302L502 304L504 304L504 302L502 302M171 304C170.11 305.745 169.547 307.125 169 309C170.693 307.218 171.375 306.419 171 304M504 304C505.324 308.604 507.715 314.537 512 317C511.063 312.348 507.905 306.74 504 304M167 310L166 312L168 312C168 310.147 168.3 310.65 167 310M165.333 312.667C165.278 312.722 165.222 313.778 165.667 313.333C165.722 313.278 165.778 312.222 165.333 312.667M162.333 318.667C162.278 318.722 162.222 319.778 162.667 319.333C162.722 319.278 162.778 318.222 162.333 318.667M513.333 318.667C513.278 318.722 513.222 319.778 513.667 319.333C513.722 319.278 513.778 318.222 513.333 318.667M160 320L160 322C161.635 321.455 161.455 321.635 162 320L160 320M514.333 320.667C514.278 320.722 514.222 321.778 514.667 321.333C514.722 321.278 514.778 320.222 514.333 320.667M159 322C157.957 324.096 157.397 325.699 157 328C158.631 325.957 159.444 324.583 159 322M515 322L516 326C516.553 323.992 516.303 323.668 515 322M517.333 326.667C517.278 326.722 517.222 327.778 517.667 327.333C517.722 327.278 517.778 326.222 517.333 326.667M156.333 328.667C156.278 328.722 156.222 329.778 156.667 329.333C156.722 329.278 156.778 328.222 156.333 328.667M518.333 328.667C518.278 328.722 518.222 329.778 518.667 329.333C518.722 329.278 518.778 328.222 518.333 328.667M155 330L155 333C155.696 331.446 155.696 331.554 155 330M520.333 331.667C520.278 331.722 520.222 332.778 520.667 332.333C520.722 332.278 520.778 331.222 520.333 331.667M154 333L154 336C154.696 334.446 154.696 334.554 154 333M521.333 334.667C521.278 334.722 521.222 335.778 521.667 335.333C521.722 335.278 521.778 334.222 521.333 334.667M152 336L152 338L154 338L154 336L152 336M320 337C324.686 338.962 330.04 337.063 335 337.004C343.677 336.901 351.574 338.44 360 339C355.368 335.707 350.478 336 345 336C336.564 336 328.386 336.338 320 337M522.333 336.667C522.278 336.722 522.222 337.778 522.667 337.333C522.722 337.278 522.778 336.222 522.333 336.667M317 338C318.248 338.685 318.548 338.749 320 339C318.752 338.315 318.452 338.251 317 338M523.333 338.667C523.278 338.722 523.222 339.778 523.667 339.333C523.722 339.278 523.778 338.222 523.333 338.667M151 339L150 344C151.318 342.074 151.651 341.234 151 339M306 341C309.761 342.533 313.258 341.186 317 340C313.064 338.351 309.838 339.629 306 341M360 339C361.248 339.685 361.548 339.749 363 340C361.752 339.315 361.452 339.251 360 339M363 340C364.769 340.779 366.036 340.912 368 341C366.231 340.221 364.964 340.088 363 340M524 340L524 344C524.71 342.24 524.71 341.759 524 340M368 341C369.248 341.685 369.548 341.749 371 342C369.752 341.315 369.452 341.251 368 341M301 343C303.3 343.916 304.377 343.879 306 342L301 343M371.667 342.333C371.222 342.778 372.278 342.722 372.333 342.667C372.778 342.222 371.722 342.278 371.667 342.333M373 343C374.248 343.685 374.548 343.749 376 344C374.752 343.315 374.452 343.251 373 343M285 354L301 345C295.569 343.515 287.37 349.2 285 354M376 344C377.54 345.803 378.597 345.832 381 346C379.307 344.938 377.96 344.48 376 344M525.333 344.667C525.278 344.722 525.222 345.778 525.667 345.333C525.722 345.278 525.778 344.222 525.333 344.667M381 346C383.201 349.566 385.837 351.408 390 352C387.351 348.899 384.965 347.054 381 346M148.333 347.667C148.278 347.722 148.222 348.778 148.667 348.333C148.722 348.278 148.778 347.222 148.333 347.667M526 347L527 352C527.651 349.766 527.318 348.926 526 347M147 349C145.794 353.419 144.212 357.371 144 362L146 362C146.579 357.702 148.622 353.157 147 349z"/>
<path style="fill:#1a2e2c; stroke:none;" d="M141 352L141 357L143 357L143 352L141 352z"/>
<path style="fill:#f2be2c; stroke:none;" d="M528 352C528.133 356.518 529.151 362.298 533 365C532.067 360.259 530.762 356.008 528 352M390.667 353.333C390.222 353.778 391.278 353.722 391.333 353.667C391.778 353.222 390.722 353.278 390.667 353.333M392 354L392 356L394 356L394 354L392 354M280.667 356.333C280.222 356.778 281.278 356.722 281.333 356.667C281.778 356.222 280.722 356.278 280.667 356.333M278 357C276.739 359.01 275.81 360.778 275 363C277.298 361.204 278.744 359.633 280 357L278 357M395.667 357.333C395.222 357.778 396.278 357.722 396.333 357.667C396.778 357.222 395.722 357.278 395.667 357.333M398 359C400.04 361.88 402.12 363.96 405 366C403.351 362.499 401.501 360.649 398 359M143 362L143 365C143.696 363.446 143.696 363.554 143 362M272 364L272 366C273.635 365.455 273.455 365.635 274 364L272 364M142 365L142 368C142.696 366.446 142.696 366.554 142 365M270 366L270 368L272 368L272 366L270 366M405.333 366.667C405.278 366.722 405.222 367.778 405.667 367.333C405.722 367.278 405.778 366.222 405.333 366.667M141 368L141 371C141.696 369.446 141.696 369.554 141 368M268 368C266.47 370.682 264.802 373.014 264 376C266.735 373.674 268.583 371.298 270 368L268 368M533 368L533 371C533.696 369.446 533.696 369.554 533 368M408 370C408.937 372.664 409.694 374.375 412 376C411.503 372.793 410.85 371.556 408 370M534 371C534.168 373.402 534.197 374.46 536 376C535.614 373.858 535.255 372.75 534 371M140 372C137.911 376.951 138 381.702 138 387C139.813 382.961 141.511 376.215 140 372M262 376L262 378L264 378L264 376L262 376M412.333 376.667C412.278 376.722 412.222 377.778 412.667 377.333C412.722 377.278 412.778 376.222 412.333 376.667M413 378L416 384C416.698 381.03 415.511 379.579 413 378M536 379L536 382C536.696 380.446 536.696 380.554 536 379M259.333 382.667C259.278 382.722 259.222 383.778 259.667 383.333C259.722 383.278 259.778 382.222 259.333 382.667M258 384L258 387C258.696 385.446 258.696 385.554 258 384M417 384L417 387C417.696 385.446 417.696 385.554 417 384M537 384C537.168 386.402 537.197 387.46 539 389C538.52 387.04 538.062 385.693 537 384M257 387C255.044 390.105 254.119 392.309 254 396C255.807 393.192 257.917 390.339 257 387M418 387L421 397C422.52 393.065 420.845 389.851 418 387M136 389L136 392C136.696 390.446 136.696 390.554 136 389M135 392L134 408C136.6 403.659 136.955 396.659 135 392M539 392L539 395C539.696 393.446 539.696 393.554 539 392M540 395L540 403C541.161 400.23 541.161 397.77 540 395M253 396L252 400C253.146 398.359 253.393 397.924 253 396M422 397C422.406 399.093 422.217 399.02 424 400C423.317 398.42 423.195 398.223 422 397M251 400L251 403C251.696 401.446 251.696 401.554 251 400M424 400C424.058 402.785 424.352 405.291 425 408C426.232 404.977 425.825 402.672 424 400M250 403L250 408C250.83 405.969 250.83 405.03 250 403M541 403L541 408C541.83 405.97 541.83 405.03 541 403M133 408L133 424C134.812 419.681 134.812 412.319 133 408M426 408C426.823 414.371 428.723 420.563 429 427C431.452 421.157 429.716 412.968 426 408M542 408C542.838 418.613 544.912 429.354 545 440C547.733 433.487 545.409 425.637 544.325 419C543.682 415.067 544.106 411.516 542 408M248 411L247 416C248.968 414.536 249.352 413.394 250 411L248 411M246 418L245 432L247 432C247 427.459 247.769 422.216 246 418M132 424C129.2 439.08 131 455.686 131 471L131 557L131 680C131 710.735 130.144 741.489 134 772C137.582 763.463 133.74 751.887 133.089 743C131.722 724.357 132 705.713 132 687L132 500L132 446C132 439.44 134.507 429.988 132 424M430 427C430.117 429.73 430.499 432.314 431 435C432.098 432.387 431.993 429.836 432 427L430 427M244 434L244 644L244 710C244 725.047 243.24 740.143 246 755C248.687 748.412 245.349 738.07 245.039 731C244.24 712.74 245 694.279 245 676L245 505L245 456C245 449.314 246.599 440.194 244 434M432 438L432 443C432.83 440.97 432.83 440.031 432 438M547 440L547 451C548.431 447.59 548.431 443.41 547 440M433 443L433 451C434.161 448.23 434.161 445.77 433 443M434 451C437.699 452.552 442.017 452 446 452L468 452L547 452C543.301 450.448 538.983 451 535 451L513 451L434 451M434 722C437.699 723.552 442.017 723 446 723L468 723L547 723C543.301 721.448 538.983 722 535 722L513 722L434 722M547 723L547 730C548.059 727.466 548.059 725.534 547 723M433 724C432.361 729.052 432 733.899 432 739C434.501 734.826 434.882 728.486 433 724M546 733L546 739C546.951 736.715 546.951 735.285 546 733M431 739L431 744C431.83 741.969 431.83 741.031 431 739M545 740C544.672 755.916 538.011 771.05 538 787C542.994 778.676 542.792 766.383 544.325 757C545.245 751.366 547.328 745.549 545 740M430 744L430 747C430.696 745.446 430.696 745.554 430 744M429 747L429 755C430.161 752.23 430.161 749.77 429 747M247 755L247 760C247.83 757.969 247.83 757.031 247 755M428 755L426 768C428.363 764.012 429.853 759.428 428 755M248 760L248 763C248.696 761.446 248.696 761.554 248 760z"/>
<path style="fill:#1a2e2c; stroke:none;" d="M545 760L545 774L547 774L547 760L545 760z"/>
<path style="fill:#f2be2c; stroke:none;" d="M249 763L249 768C249.83 765.969 249.83 765.03 249 763M250 768L250 771C250.696 769.446 250.696 769.554 250 768M425 768L424 772C425.303 770.332 425.553 770.008 425 768M251 771C251.198 774.832 252.126 777.656 254 781C254.753 777.415 253.154 773.88 251 771M135 773L135 779C135.951 776.715 135.951 775.285 135 773M423.333 774.667C423.278 774.722 423.222 775.778 423.667 775.333C423.722 775.278 423.778 774.222 423.333 774.667M422 776L421 780C422.303 778.332 422.553 778.008 422 776M420.333 780.667C420.278 780.722 420.222 781.778 420.667 781.333C420.722 781.278 420.778 780.222 420.333 780.667M255 781L255 784C255.696 782.446 255.696 782.554 255 781M136.333 782.667C136.278 782.722 136.222 783.778 136.667 783.333C136.722 783.278 136.778 782.222 136.333 782.667M137 784L137 790C137.951 787.715 137.951 786.285 137 784M256 784C256.651 786.434 257.16 787.283 259 789C258.383 786.697 257.743 785.628 256 784M419 784L418 788C419.303 786.332 419.553 786.008 419 784M537 787C535.399 792.007 534.11 796.717 534 802C536.708 798.199 538.388 791.516 537 787M417 788C414.188 795.415 407.79 800.38 405 808C409.674 804.069 418.524 794.453 417 788M259 789C259.168 791.402 259.197 792.46 261 794C260.52 792.04 260.062 790.693 259 789M138 790C138.066 797.871 141.125 805.391 143 813C145.694 806.518 141.025 795.931 138 790M261 794C261.684 795.58 261.805 795.777 263 797L263 794L261 794M263 797C263.954 801.717 266.85 805.574 271 808C269.154 803.79 266.544 799.953 263 797M533 802C532.225 805.997 531.323 809.937 531 814C533.61 810.683 534.623 805.978 533 802M403 808L402 812C403.274 810.659 404.041 809.597 405 808L403 808M272 810C273.56 811.888 274.804 812.928 277 814C275.464 811.71 274.613 810.838 272 810M400 812L400 814C401.635 813.455 401.455 813.635 402 812L400 812M144.333 814.667C144.278 814.722 144.222 815.778 144.667 815.333C144.722 815.278 144.778 814.222 144.333 814.667M277.333 814.667C277.278 814.722 277.222 815.778 277.667 815.333C277.722 815.278 277.778 814.222 277.333 814.667M530.333 814.667C530.278 814.722 530.222 815.778 530.667 815.333C530.722 815.278 530.778 814.222 530.333 814.667M278 816L278 818L280 818L280 816L278 816M529.333 816.667C529.278 816.722 529.222 817.778 529.667 817.333C529.722 817.278 529.778 816.222 529.333 816.667M280.667 818.333C280.222 818.778 281.278 818.722 281.333 818.667C281.778 818.222 280.722 818.278 280.667 818.333M384 826C388.501 824.294 392.057 821.813 395 818C390.499 819.706 386.943 822.187 384 826M528 818L528 821C528.696 819.446 528.696 819.554 528 818M146 819C146.416 822.083 147.158 825.006 148 828C149.191 824.641 148.078 821.793 146 819M283 819C283.968 821.948 285.141 822.816 288 824C286.637 821.658 285.268 820.508 283 819M527 822L526 826C527.303 824.332 527.553 824.008 527 822M288.667 824.333C288.222 824.778 289.278 824.722 289.333 824.667C289.778 824.222 288.722 824.278 288.667 824.333M290 825C291.248 825.685 291.548 825.749 293 826C291.752 825.315 291.452 825.251 290 825M362 834C368.601 836.692 379.682 831.02 384 826C376.639 828.633 369.673 832.224 362 834M525 826L525 829C525.696 827.446 525.696 827.554 525 826M294.667 827.333C294.222 827.778 295.278 827.722 295.333 827.667C295.778 827.222 294.722 827.278 294.667 827.333M296.667 828.333C296.222 828.778 297.278 828.722 297.333 828.667C297.778 828.222 296.722 828.278 296.667 828.333M299.667 829.333C299.222 829.778 300.278 829.722 300.333 829.667C300.778 829.222 299.722 829.278 299.667 829.333M524 829L524 832C524.696 830.446 524.696 830.554 524 829M150.333 830.667C150.278 830.722 150.222 831.778 150.667 831.333C150.722 831.278 150.778 830.222 150.333 830.667M301 830C302.788 831.422 303.706 831.697 306 832C304.25 830.745 303.143 830.386 301 830M151.333 832.667C151.278 832.722 151.222 833.778 151.667 833.333C151.722 833.278 151.778 832.222 151.333 832.667M306 832C307.248 832.685 307.548 832.749 309 833C307.752 832.315 307.452 832.251 306 832M523 832L522 837C523.318 835.074 523.651 834.234 523 832M309 833C310.248 833.685 310.548 833.749 312 834C310.752 833.315 310.452 833.251 309 833M312 834C316.726 836.85 322.594 836.985 328 837C323.018 834.744 317.443 834.016 312 834M330 837C338.201 840.441 351.672 838.203 360 836C355.139 833.965 350.005 836.061 345 836.711C340.072 837.351 334.961 837 330 837M521 837C519.297 840.6 517.698 844.069 517 848C519.945 845.239 522.115 841.007 521 837M155 840L155 843C155.696 841.446 155.696 841.554 155 840M156 843L157 848C157.651 845.766 157.318 844.926 156 843M158.333 848.667C158.278 848.722 158.222 849.778 158.667 849.333C158.722 849.278 158.778 848.222 158.333 848.667M516 848L515 853C516.318 851.074 516.651 850.234 516 848M159 850L161 856C161.913 853.186 161.074 852.017 159 850M513 854L508 864C511.388 861.841 514.293 858.082 513 854M163 856C163.421 858.843 163.939 860.012 166 862C165.221 859.73 164.402 857.942 163 856M166 862L166 864L168 864L168 862L166 862M168 864C168.406 866.093 168.217 866.02 170 867C169.309 865.611 169.016 865.139 168 864M507 864C505.602 866.051 504.749 867.646 504 870C506.281 868.383 507.322 866.808 507 864M170 867C170.406 869.092 170.217 869.02 172 870C171.316 868.42 171.195 868.223 170 867M172.333 870.667C172.278 870.722 172.222 871.778 172.667 871.333C172.722 871.278 172.778 870.222 172.333 870.667M503 870C499.956 873.668 497.197 877.348 496 882C499.203 879.193 503.237 874.348 503 870M173 872L173 874L175 874L175 872L173 872M175.333 874.667C175.278 874.722 175.222 875.778 175.667 875.333C175.722 875.278 175.778 874.222 175.333 874.667M179.333 878.667C179.278 878.722 179.222 879.778 179.667 879.333C179.722 879.278 179.778 878.222 179.333 878.667M180.333 880.667C180.278 880.722 180.222 881.778 180.667 881.333C180.722 881.278 180.778 880.222 180.333 880.667M181.333 882.667C181.278 882.722 181.222 883.778 181.667 883.333C181.722 883.278 181.778 882.222 181.333 882.667M494 882C492.703 884.035 491.667 885.695 491 888C493.218 886.201 494.638 884.509 496 882L494 882M182 884L182 886L184 886L184 884L182 884M184 886L184 888L187 888L187 886L184 886M187.333 888.667C187.278 888.722 187.222 889.778 187.667 889.333C187.722 889.278 187.778 888.222 187.333 888.667M485 891C484.11 892.745 483.547 894.125 483 896C484.914 894.394 485.837 893.217 487 891L485 891M190.667 893.333C190.222 893.778 191.278 893.722 191.333 893.667C191.778 893.222 190.722 893.278 190.667 893.333M192 894C193.223 895.195 193.42 895.316 195 896C193.777 894.805 193.58 894.684 192 894M195.333 896.667C195.278 896.722 195.222 897.778 195.667 897.333C195.722 897.278 195.778 896.222 195.333 896.667M480 899C481.457 897.896 481.897 897.457 483 896C480.876 896.899 480.899 896.876 480 899M478 899C474.806 902.847 470.805 905.781 467 909C471.361 910.14 478.777 902.924 480 899L478 899M198.667 901.333C198.222 901.778 199.278 901.722 199.333 901.667C199.778 901.222 198.722 901.278 198.667 901.333M200.667 902.333C200.222 902.778 201.278 902.722 201.333 902.667C201.778 902.222 200.722 902.278 200.667 902.333M202.667 903.333C202.222 903.778 203.278 903.722 203.333 903.667C203.778 903.222 202.722 903.278 202.667 903.333M204.667 905.333C204.222 905.778 205.278 905.722 205.333 905.667C205.778 905.222 204.722 905.278 204.667 905.333M206 906C207.229 907.87 207.868 908.224 210 909C208.771 907.13 208.132 906.776 206 906M210 909C212.346 911.803 214.546 913.756 218 915C216.727 911.155 213.845 909.767 210 909M464 912C465.58 911.317 465.777 911.195 467 910C465.42 910.684 465.223 910.805 464 912M462 912L462 914C463.635 913.455 463.455 913.635 464 912L462 912M218 915C219.988 917.061 221.157 917.579 224 918C222.059 916.598 220.27 915.779 218 915M456.667 917.333C456.222 917.778 457.278 917.722 457.333 917.667C457.778 917.222 456.722 917.278 456.667 917.333M224 918L224 920L226 920L226 918L224 918M448 921C451.258 922.235 453.233 920.869 456 919C452.91 918.15 450.744 919.465 448 921M226 920C227.734 922.003 229.355 921.923 232 922C229.987 920.775 228.341 920.355 226 920M446 922L446 924L448 924L448 922L446 922M232 923C233.717 924.84 234.566 925.349 237 926C235.337 924.497 234.104 923.801 232 923M432 931C435.776 929.649 440.567 928.243 443 925C438.458 925.683 434.478 926.96 432 931M237 926C238.789 927.422 239.706 927.697 242 928L242 926L237 926M242 928C244.923 931.896 251.263 933.686 256 934C251.64 931.288 246.958 929.329 242 928M429 931C430.248 931.685 430.549 931.749 432 932C430.752 931.315 430.452 931.251 429 931M427.667 932.333C427.222 932.778 428.278 932.722 428.333 932.667C428.778 932.222 427.722 932.278 427.667 932.333M424 933C425.248 933.685 425.548 933.749 427 934C425.752 933.315 425.452 933.251 424 933M256 934C259.799 936.842 264.31 937.786 269 938C265.361 935.007 260.644 934.212 256 934M408 937L408 939C411.819 938.826 415.292 937.848 419 937C415.444 935.549 411.754 936.704 408 937M270.667 938.333C270.222 938.778 271.278 938.722 271.333 938.667C271.778 938.222 270.722 938.278 270.667 938.333M275 939C276.75 940.255 277.857 940.614 280 941C278.25 939.745 277.143 939.386 275 939M400 940C402.646 940.815 405.226 940.213 408 940C405.194 938.854 402.929 939.308 400 940M280 941C282.829 942.271 285.916 942.608 289 943C286.196 940.875 283.467 941.011 280 941M392 941C394.613 942.098 397.164 941.993 400 942C397.387 940.902 394.835 941.007 392 941M290 943C292.89 944.213 295.874 943.998 299 944C296.11 942.787 293.126 943.002 290 943M299 944C305.421 948.778 315.393 947 323 947C330.052 947 336.972 948 344 948C354.646 948 365.297 947 376 947C368.841 943.996 357.744 946 350 946C338.739 946 327.235 946.68 316 945.911C310.31 945.521 304.703 944.245 299 944M378 944C379.506 944.683 380.315 944.826 382 945C380.494 944.317 379.685 944.174 378 944M40 1051C40.0103 1054.09 39.5911 1056.9 42 1059C41.635 1056.18 41.2321 1053.56 40 1051M1040 1051L1040 1056L1042 1056L1042 1051L1040 1051M1039 1058L1039 1061C1039.7 1059.45 1039.7 1059.55 1039 1058M42 1059C42.168 1061.4 42.1969 1062.46 44 1064C43.6137 1061.86 43.2549 1060.75 42 1059M1038 1061L1038 1064C1038.7 1062.45 1038.7 1062.55 1038 1061M44 1064C44.6836 1065.58 44.8048 1065.78 46 1067C45.3164 1065.42 45.1952 1065.22 44 1064M1037 1064C1034.99 1066.63 1033.83 1068.8 1033 1072C1036.12 1070.14 1038.16 1067.67 1037 1064M46 1069C47.1841 1071.86 48.0518 1073.03 51 1074C49.741 1071.5 48.4396 1070.37 46 1069M1031 1072C1030.11 1073.74 1029.55 1075.12 1029 1077C1030.75 1075.41 1031.79 1074.05 1033 1072L1031 1072M51 1074C51.9357 1075.95 52.3924 1076.55 54 1078C53.0643 1076.05 52.6076 1075.45 51 1074M1026 1080C1027.46 1078.9 1027.9 1078.46 1029 1077C1026.88 1077.9 1026.9 1077.88 1026 1080M54.6667 1079.33C54.2222 1079.78 55.2778 1079.72 55.3333 1079.67C55.7778 1079.22 54.7222 1079.28 54.6667 1079.33M56 1081C57.2228 1082.2 57.42 1082.32 59 1083C57.7772 1081.8 57.58 1081.68 56 1081M1022.67 1082.33C1022.22 1082.78 1023.28 1082.72 1023.33 1082.67C1023.78 1082.22 1022.72 1082.28 1022.67 1082.33M59.6667 1083.33C59.2222 1083.78 60.2778 1083.72 60.3333 1083.67C60.7779 1083.22 59.7222 1083.28 59.6667 1083.33M1016 1085C1018.8 1085.98 1020.31 1085.4 1022 1083L1016 1085M64 1085C66.4023 1088.85 70.6349 1089.72 75 1090L75 1088C71.1621 1087.52 67.7382 1085.93 64 1085M1008.67 1088.33C1008.22 1088.78 1009.28 1088.72 1009.33 1088.67C1009.78 1088.22 1008.72 1088.28 1008.67 1088.33M1003 1089C1004.77 1089.78 1006.04 1089.91 1008 1090C1006.23 1089.22 1004.96 1089.09 1003 1089M76 1090C77.5061 1090.68 78.3148 1090.83 80 1091C78.494 1090.32 77.6852 1090.17 76 1090M411 1242C404.186 1239.13 397.656 1240.86 392.04 1234.66C386.561 1228.61 387 1220.61 387 1213L387 1170L387 1148C387.006 1145.05 386.484 1140.92 389.318 1139.03C392.987 1136.58 401.378 1137.31 402.682 1142.06C403.919 1146.56 403 1152.35 403 1157L403 1187L403 1222C404.661 1218.04 404 1213.26 404 1209L404 1186L404 1164L404 1147C403.999 1144.69 404.478 1141.57 403.397 1139.43C401.524 1135.74 389.491 1135.7 387.028 1138.74C385.228 1140.97 386 1145.35 386 1148L386 1171L386 1217C386 1225.55 386.355 1234.58 394.185 1240.11C398.668 1243.27 405.798 1242 411 1242z"/>
<path style="fill:#194c68; stroke:none;" d="M394 1236C392.461 1232.49 390.311 1228.68 389.414 1224.96C387.497 1217.02 389 1207.15 389 1199L389 1160C389 1155.12 387.621 1147.69 389.603 1143.15C391.192 1139.51 397.676 1138.88 400.397 1141.6C403.663 1144.87 402 1153.76 402 1158L402 1204C402 1209.71 399.841 1220.35 405 1224C402.068 1216.35 403 1208.1 403 1200L403 1161C403 1155.67 403.096 1150.33 402.995 1145C402.958 1143.02 403.136 1140.41 401.397 1139.03C398.41 1136.66 388.552 1136.99 387.318 1141.15C385.351 1147.77 387 1157.1 387 1164L387 1214C387 1221.73 386.075 1231.88 394 1236z"/>
<path style="fill:#f2be2c; stroke:none;" d="M464.005 1138.44C458.184 1139.48 455.208 1147.38 459.179 1152.4C463.681 1158.08 475.748 1149.66 479.397 1158.19C481.559 1163.24 480 1171.57 480 1177L480 1221C480 1229.79 476.988 1243.18 489.995 1240.77C498.71 1239.16 496 1226.53 496 1220L496 1178C496 1171.86 494.688 1163.99 496.318 1158.06C498.91 1148.62 514.818 1159.05 518.397 1150.85C519.672 1147.93 519.992 1140.43 516.682 1138.74C512.829 1136.78 506.215 1138 502 1138C489.756 1138 476.071 1136.3 464.005 1138.44z"/>
<path style="fill:#1a2e2c; stroke:none;" d="M411 1227C401.096 1224.44 402 1216.61 402 1208L402 1160C402 1155.77 404.046 1143.92 400.397 1141.03C399.194 1140.08 397.449 1140.06 395.996 1140.02C386.968 1139.8 389 1148.36 389 1155L389 1204C389 1211.02 387.48 1220.12 389.684 1226.83C391.891 1233.56 394.96 1237.62 402 1239.39C404.358 1239.98 408.069 1240.61 409.821 1238.4C411.97 1235.68 411 1230.24 411 1227z"/>
<path style="fill:#f2be2c; stroke:none;" d="M425 1165C428.306 1157.12 422.332 1146.25 434.995 1146C436.995 1145.97 439 1146 441 1146C438.974 1145.15 437.225 1145.03 434.995 1145C432.595 1144.98 429.424 1144.62 427.318 1146.03C422.913 1148.97 425 1160.36 425 1165z"/>
<path style="fill:#194c68; stroke:none;" d="M419 1180C420.194 1177.16 419.402 1173.95 420.603 1171.15C421.896 1168.13 425.612 1168.15 427.142 1165.43C429.583 1161.08 428 1152.87 428 1148C429.996 1148 432.01 1147.93 434.004 1148.02C444.883 1148.5 438.742 1159.22 441.742 1165.85C443.299 1169.3 447.073 1168.25 449.397 1170.6C451.813 1173.05 451 1177.87 451 1181C448.374 1181 443.888 1180.25 442.028 1182.6C440.088 1185.05 441 1190.09 441 1193C441 1201.77 439.353 1212.44 441.394 1220.98C442.656 1226.26 447.502 1225.44 449.972 1229.3C455.211 1237.49 445.823 1240 440 1240C441.432 1240.6 442.465 1240.89 444.059 1240.97C453.872 1241.42 452 1233.43 452 1226C438.309 1223.83 442 1208.52 442 1198C442 1194.17 441.04 1188.73 442.603 1185.15C444.344 1181.16 449.639 1183.26 451.397 1179.68C452.938 1176.55 452 1171.42 452 1168C450.108 1167.99 447.946 1168.21 446.104 1167.68C437.195 1165.11 446.039 1151.5 440.397 1147.03C437.616 1144.83 429.06 1145.27 427.028 1148.32C424.561 1152.02 426.66 1157.76 425.721 1161.91C424.909 1165.49 421.82 1165.85 420.013 1168.55C418.056 1171.47 419 1176.64 419 1180z"/>
<path style="fill:#f2be2c; stroke:none;" d="M442 1147C442 1151.58 439.848 1163.81 443.742 1166.97C445.581 1168.47 448.806 1167.99 451 1168L451 1166C439.004 1165.61 445.214 1154.66 442 1147z"/>
<path style="fill:#1a2e2c; stroke:none;" d="M428 1148C428 1152.84 429.09 1159.2 427.486 1163.81C426.307 1167.2 422.878 1167.04 421.024 1169.58C419.003 1172.36 420 1177.74 420 1181C429.329 1181.71 428 1189.66 428 1197C428 1211.44 422.523 1244.11 446.891 1239.85C451.283 1239.08 452.082 1232.86 450.397 1229.3C448.718 1225.76 443.762 1225.95 442.009 1221.95C438.611 1214.18 440.999 1201.38 441 1193C441 1190.08 440.317 1185.88 442.028 1183.32C443.921 1180.48 448.048 1181.01 451 1181C451 1177.94 452.057 1172.22 449.397 1170.02C447.05 1168.09 443.956 1168.85 442.179 1165.85C439.392 1161.14 443.296 1153.8 439.972 1149.6C437.738 1146.78 431.18 1148 428 1148z"/>
<path style="fill:#f2be2c; stroke:none;" d="M53 1220C58.1736 1207.67 50.3137 1192.5 57.108 1180C64.2452 1166.87 79.7329 1164.1 93 1169.48C97.5392 1171.32 108.45 1179.43 103.356 1185.44C100.973 1188.25 95.3867 1189.02 92 1190C101.603 1193.33 111.08 1184.39 104.081 1175.3C91.7503 1159.28 63.7383 1161.53 55.2199 1180.04C50.0698 1191.23 53 1207.95 53 1220M131 1167C135.562 1168.91 140.219 1166.89 145 1167.1C150.118 1167.34 154.969 1169.26 160 1170C151.882 1164.87 140.134 1164.83 131 1167M200 1242C196.079 1240.35 189.759 1242.55 186.603 1239.4C183.095 1235.89 185 1225.59 185 1221L185 1168C191.201 1168 197.804 1166.66 201 1173C210.084 1171.57 215.557 1163.85 225.83 1168.34C231.517 1170.83 234.457 1176.47 236.409 1182C240.389 1193.27 238 1208.14 238 1220C238 1225.07 239.511 1233.08 237.397 1237.77C235.439 1242.11 225.637 1242.36 223.028 1238.57C220.778 1235.3 222 1228.78 222 1225C222 1214.12 224.586 1199.31 220.737 1189.01C217.211 1179.58 206.245 1179.12 202 1188C208.021 1183.95 217.094 1180.82 219.682 1191C220.626 1194.72 220 1199.19 220 1203L220 1228C220 1232.97 218.445 1240.91 225.094 1241.87C228.584 1242.37 235.726 1243.05 237.972 1239.68C241.038 1235.09 239 1224.36 239 1219L239 1195C239 1190.96 239.668 1186.2 238.505 1182.29C235.968 1173.75 231.174 1167.16 222 1166.17C218.484 1165.8 214.468 1165.7 211.015 1166.53C208.727 1167.09 206.369 1169.05 204 1169C198.466 1168.86 190.163 1162.04 184.603 1167.6C181.337 1170.87 183 1179.76 183 1184L183 1224C183 1228.28 181.548 1235.97 184.028 1239.68C186.722 1243.72 195.803 1242 200 1242M286 1224C288.143 1220.86 288.947 1216.1 285.427 1213.43C283.346 1211.85 280.439 1211.87 278 1211.24C272.229 1209.74 264.386 1208.03 259.465 1204.58C244.953 1194.44 252.296 1171.72 268.039 1167.84C273.522 1166.49 279.4 1167 285 1167C265.707 1158.9 242.64 1177.32 251.764 1197.83C257.025 1209.66 269.195 1209.44 279.91 1213.09C285.639 1215.04 286.981 1218.37 286 1224M354 1240L354 1235C349.535 1236.71 345.854 1240.15 341 1240.81C315.841 1244.25 318 1213.56 318 1197L318 1179C318.005 1176.28 317.631 1172.92 319.318 1170.57C322.202 1166.57 329.729 1168 334 1168L334 1206C334 1210.91 332.839 1217.65 335.742 1221.94C338.678 1226.28 343.344 1226 348 1226C344.328 1224.44 340.409 1224.72 337.434 1221.52C334.517 1218.38 335.002 1213.97 335 1210L335 1187C335 1182.09 337.368 1169.01 331.852 1166.6C328.254 1165.03 319.418 1164.99 317.603 1169.15C315.621 1173.69 317 1181.12 317 1186C317 1197.54 316.054 1209.55 317.576 1221C318.173 1225.49 318.157 1229.91 320.417 1234C324.981 1242.24 336.502 1243.53 344.999 1241.69C348.428 1240.95 350.407 1239.29 354 1240M350 1224C354.825 1222.3 353.998 1217.44 354 1213L354 1182C354 1177.59 352.496 1169.85 358.059 1168.32C361.527 1167.37 367.552 1167.38 369.258 1171.15C371.226 1175.5 370 1182.32 370 1187L370 1222C370 1226.73 371.491 1234.76 368.258 1238.68C365.372 1242.18 359.02 1241 355 1241C358.591 1242.51 367.286 1243.48 369.821 1239.68C372.627 1235.48 371 1226.85 371 1222L371 1186C371 1181.04 372.258 1174.04 370.486 1169.34C368.778 1164.82 355.923 1164.04 353.742 1168.32C351.666 1172.39 353 1179.54 353 1184C353 1196.79 355.592 1212.35 350 1224M421 1166C422.248 1166.68 422.548 1166.75 424 1167C422.752 1166.32 422.452 1166.25 421 1166M719 1206C722.281 1206.63 724.856 1208.3 728 1209.3C733.603 1211.09 746.046 1209.4 748.114 1217.09C748.872 1219.91 746.67 1223.29 746 1226C742.387 1226 738.494 1226.39 735.015 1225.24C728.918 1223.22 722.296 1216.72 715.434 1221.32C709.394 1225.37 715.756 1232.8 719.174 1235.86C726.396 1242.33 738.86 1242.18 748 1240.54C765.096 1237.45 772.033 1215.95 760.366 1202.76C755.443 1197.2 745.675 1197.09 739.004 1195.33C735.862 1194.5 733.123 1192.81 730 1192C730.019 1190.4 729.879 1188.63 730.318 1187.07C733.614 1175.3 745.648 1185.25 752 1186.51C756.093 1187.33 763.471 1186.3 763.743 1180.96C763.93 1177.29 760.683 1175.05 758.251 1172.85C751.32 1166.58 740.076 1164.62 731 1166.38C726.52 1167.24 723.975 1169.24 721.041 1172.56C718.936 1174.93 716.259 1177.08 714.938 1180.04C711.144 1188.53 715.705 1198.41 719 1206M814 1234C811.844 1229.96 809.504 1226.5 808.206 1222C806.521 1216.16 807 1210.01 807 1204C807 1188.6 808.598 1171.19 827 1167.48C836.906 1165.48 844.017 1168.78 853 1172C848.132 1166.08 842.193 1166 835 1166C825.323 1166 815.634 1166.85 810.238 1176.17C804.413 1186.24 806 1198.89 806 1210C806 1217.63 805.081 1231.06 814 1234M886 1166C890.337 1167.82 895.369 1166.68 900 1167.29C905.113 1167.96 909.32 1170.07 914 1172C908.601 1163.39 894.669 1166 886 1166M960 1184C954.075 1187.11 955 1193.08 955 1199L955 1227C955 1230.64 955.756 1235.65 953.258 1238.68C948.696 1244.21 939.827 1240.38 939.109 1234C938.12 1225.21 939 1215.85 939 1207C939 1196.46 938.138 1185.5 939.059 1175C939.813 1166.39 952.174 1165.31 955 1173C959.71 1171.81 963.52 1168.8 968 1167C964.234 1166 961.861 1169.19 958.17 1169.08C952.718 1168.92 945.308 1162.51 939.603 1167.03C936.171 1169.75 938 1180.06 938 1184L938 1222C938 1226.88 936.621 1234.31 938.603 1238.85C940.55 1243.31 952.212 1243.59 954.821 1239.68C957.505 1235.66 956 1227.63 956 1223C956 1209.73 953.963 1195.94 960 1184z"/>
<path style="fill:#194c68; stroke:none;" d="M963 1170C969.199 1168.58 974.828 1167.03 980.696 1170.67C985.241 1173.49 986.24 1178.1 992 1179C998.845 1163.24 1018.37 1167.25 1024.6 1181.09C1027.13 1186.69 1026 1193.99 1026 1200L1026 1238C1028.09 1233.03 1027 1226.35 1027 1221L1027 1193C1027 1187.26 1027.33 1181.25 1024.56 1176C1018.27 1164.1 997.523 1163.23 992 1176C982.847 1172.38 973.13 1159.04 963 1170z"/>
<path style="fill:#f2be2c; stroke:none;" d="M992 1174C999.549 1168.31 1004.55 1167 1014 1167C1006.33 1163.78 995.292 1165.9 992 1174z"/>
<path style="fill:#194c68; stroke:none;" d="M67 1169C71.8752 1170.88 79.541 1168 85 1168C79.5664 1165.72 72.3698 1166.99 67 1169M139 1167C144.249 1169.22 150.588 1168.26 155.829 1170.88C160.01 1172.98 162.518 1177.08 166 1180C161.193 1168.19 150.486 1167 139 1167M201 1173C198.921 1166.15 190.876 1168 185 1168L185 1218C185 1223.64 183.084 1233.56 185.603 1238.68C187.239 1242.01 195.795 1241.82 198.682 1240.4C202.507 1238.51 201 1230.47 201 1227L201 1201C201 1196.79 200.396 1191.9 202.318 1188C207.283 1177.94 218.234 1181.59 221.057 1191C222.758 1196.67 222 1203.16 222 1209L222 1240C223.875 1235.53 223 1229.81 223 1225L223 1201C223 1196.79 223.531 1192.1 222.196 1188.04C219.048 1178.48 206.531 1177.85 200.854 1185.46C197.673 1189.72 199 1196.98 199 1202L199 1240L186 1240L186 1169C189.548 1169 194.558 1168.17 197.687 1170.18C199.544 1171.37 200.272 1175.35 202.823 1175.17C205.449 1174.98 207.73 1171.45 210.04 1170.3C215.842 1167.42 223.371 1168.31 228.671 1171.97C234.679 1176.13 235.967 1185.33 235.999 1192C236.076 1208 236 1224 236 1240L224 1240C227.222 1241.35 235.421 1242.46 237.397 1238.57C239.613 1234.2 238 1225.82 238 1221C238 1208.98 240.574 1193.47 236.768 1182C235.01 1176.7 232.713 1171.58 227.575 1168.77C222.929 1166.22 214.812 1166.07 210.015 1168.23C206.782 1169.68 204.447 1172.04 201 1173M264 1206C259.938 1202.88 256.248 1199.9 254.224 1194.99C249.82 1184.29 257.017 1173.3 267 1169.47C275.004 1166.39 282.01 1169.59 290 1170L290 1168C278.443 1166.54 264.192 1164.84 255.811 1174.9C248.519 1183.65 250.308 1204.96 264 1206z"/>
<path style="fill:#f2be2c; stroke:none;" d="M286.667 1167.33C286.222 1167.78 287.278 1167.72 287.333 1167.67C287.778 1167.22 286.722 1167.28 286.667 1167.33M544 1241L544 1210C544 1204.46 543.157 1198.2 545.403 1193C546.957 1189.4 549.19 1185.26 553.018 1183.74C559.924 1181 567.501 1183.65 567.423 1173.02C567.368 1165.45 555.914 1166.12 551 1168.12C549.029 1168.92 547.248 1170.35 545 1170.11C539.995 1169.58 532.853 1163.54 527.893 1168.6C526.008 1170.53 526.048 1173.5 526.005 1176C525.907 1181.66 526 1187.34 526 1193L526 1227C526 1231.07 524.938 1237.28 528.434 1240.26C532.31 1243.56 539.513 1241.83 544 1241M584 1204C578.626 1204.92 578.07 1209.08 578.004 1214C577.888 1222.58 580.094 1229.76 582 1238C588.479 1239.44 594.178 1241.41 601 1240.91C604.687 1240.64 608.322 1238.61 611.961 1238.67C617.177 1238.76 622.266 1243.44 627.682 1239.82C631.577 1237.22 630 1229.01 630 1225L630 1192C630 1186.55 630.811 1180.92 626.606 1176.75C617.526 1167.75 607.255 1166.18 595 1168.07C589.244 1168.96 581.267 1174.18 582.167 1180.91C582.725 1185.08 587.354 1186.27 591 1185.84C594.417 1185.43 596.857 1183.02 600 1181.89C605.32 1179.98 614.176 1182.37 614.663 1189.01C615.033 1194.06 610.374 1196.62 606 1196.95C598.534 1197.51 585.635 1193.9 584 1204M664 1172C662.051 1166.31 650.316 1164.32 648.318 1171.19C646.545 1177.28 648 1185.67 648 1192L648 1221C648 1225.68 647.182 1231.24 648.279 1235.81C649.467 1240.76 658.819 1241.65 662.397 1238.82C665.343 1236.49 664 1229.31 664 1226L664 1200C664 1196.34 663.208 1191.52 664.603 1188.06C666.276 1183.91 672.044 1182.94 675.996 1183.81C682.194 1185.18 683.84 1191.45 683.985 1197C684.312 1209.5 682.666 1222.57 684.109 1234.98C684.768 1240.65 693.048 1243.44 697.258 1239.26C700.944 1235.6 700 1226.72 700 1222C700.001 1209.86 701.143 1197.06 699.714 1185C698.995 1178.92 698.123 1173.45 692.675 1169.73C682.839 1163.02 673.519 1169.56 664 1172z"/>
<path style="fill:#194c68; stroke:none;" d="M810 1181C812.661 1178.27 814.896 1175.22 818.015 1172.94C828.075 1165.59 838.919 1168.47 850 1171C838.971 1162.47 813.618 1165.83 810 1181M885 1168C889.86 1169.49 896.782 1168 902 1168C897.178 1165.98 889.949 1166.54 885 1168z"/>
<path style="fill:#f2be2c; stroke:none;" d="M979 1167C980.248 1167.68 980.549 1167.75 982 1168C980.752 1167.32 980.452 1167.25 979 1167M1014.67 1167.33C1014.22 1167.78 1015.28 1167.72 1015.33 1167.67C1015.78 1167.22 1014.72 1167.28 1014.67 1167.33z"/>
<path style="fill:#1a2e2c; stroke:none;" d="M104 1223C100.853 1222.27 96.4781 1219.92 93.2593 1220.77C91.0967 1221.34 89.7068 1223.61 87.8711 1224.78C84.0434 1227.2 78.3261 1227.43 74.213 1225.44C70.9744 1223.86 68.9269 1219.37 68.2747 1216C66.4928 1206.79 66.0056 1190.57 72.6875 1183.3C79.036 1176.4 89.5752 1181.36 92 1189C95.2384 1188.14 100.958 1187.44 102.954 1184.44C104.662 1181.88 102.527 1179.49 101.046 1177.49C97.8143 1173.14 94.4743 1169.37 88.8302 1168.26C85.7042 1167.65 82.1711 1167.92 79 1168.02C76.1954 1168.1 73.6949 1168.7 71.0008 1169.43C53.728 1174.1 55 1192.64 55 1207C55 1217 54.8973 1228.13 63.4699 1235.08C75.819 1245.1 103.031 1241.67 104 1223z"/>
<path style="fill:#194c68; stroke:none;" d="M121 1178C126.173 1174.24 129.542 1170.53 136 1169C129.241 1166.25 122.895 1171.76 121 1178z"/>
<path style="fill:#1a2e2c; stroke:none;" d="M136 1168.52C117.912 1172.38 118 1187.93 118 1203C118 1209.96 116.782 1218.28 118.8 1225C122.631 1237.76 136.963 1242.2 149 1239.47C166.915 1235.41 167 1219.98 167 1205C167 1197.77 168.341 1188.94 165.983 1182C161.918 1170.04 147.411 1166.08 136 1168.52M186 1169L186 1240L199 1240L199 1207C199 1201.57 198.165 1195.34 199.279 1190C200.437 1184.46 207.168 1179.38 212.91 1180.32C218.88 1181.29 222.452 1187.49 222.907 1193C224.181 1208.46 223 1224.49 223 1240L236 1240L236 1192C235.989 1185.43 235.308 1176.29 229.471 1171.97C223.896 1167.85 215.234 1167.15 209.093 1170.3C207.117 1171.31 205.109 1174.42 202.823 1174.54C200.366 1174.66 199.698 1170.74 197.687 1169.74C194.458 1168.15 189.508 1169 186 1169M269 1168.53C253.76 1172.03 247.271 1191.18 258.746 1202.54C264.06 1207.79 272.179 1208.21 279 1210.23C283.642 1211.61 290.262 1212.49 289.681 1218.91C288.841 1228.21 276.996 1229.71 270.093 1226.47C267.114 1225.07 265.109 1221.7 261.907 1220.86C259.195 1220.14 255.289 1221.62 253.337 1223.55C249.63 1227.21 254.109 1232.8 257.34 1235.12C264.882 1240.54 276.057 1241.48 285 1239.47C300.011 1236.1 308.55 1216.05 296.535 1204.38C290.312 1198.33 280.804 1198.87 273.004 1196.7C269.18 1195.63 266.16 1192.13 266.242 1188.04C266.361 1182.15 273.028 1179.77 278 1180.07C284.869 1180.49 290.21 1189.97 297.393 1183.08C300.807 1179.8 296.694 1174.56 293.956 1172.43C287.976 1167.79 276.181 1166.88 269 1168.53z"/>
<path style="fill:#194c68; stroke:none;" d="M320 1168C323.401 1169.43 328.652 1167.86 331.397 1170.6C334.272 1173.48 333 1180.31 333 1184L333 1219C335.085 1214.03 334 1207.35 334 1202L334 1168L320 1168M354 1221C355.661 1217.04 355 1212.26 355 1208L355 1184C355 1180.31 353.728 1173.48 356.603 1170.6C359.188 1168.02 364.677 1169 368 1169L368 1240L356 1240C355.942 1237.22 355.648 1234.71 355 1232C350.556 1233.12 347.912 1235.9 346 1240L354 1235C354.528 1241.78 366.313 1244.36 369.258 1237.85C371.439 1233.03 370 1225.2 370 1220L370 1187C370 1182.16 371.072 1175.8 369.566 1171.15C368.032 1166.41 355.751 1166.32 354.318 1171.15C352.93 1175.82 354 1182.15 354 1187L354 1221z"/>
<path style="fill:#f2be2c; stroke:none;" d="M452 1168L452 1181C453.591 1177.21 453.591 1171.79 452 1168z"/>
<path style="fill:#1a2e2c; stroke:none;" d="M846 1189C850.057 1187.89 853.778 1186.37 858 1186C857.387 1181.12 854.611 1174.97 850.61 1171.84C839.912 1163.48 816.744 1167.39 811.086 1180C809.19 1184.23 809.023 1189.45 809.001 1194C808.947 1205.06 805.902 1222.42 813.44 1231.54C823.821 1244.09 849.786 1244.08 856.667 1227.85C858.822 1222.77 851.288 1219.79 847.208 1220.49C841.008 1221.56 840.145 1229.72 832.174 1227.53C820.219 1224.24 822 1210.47 822 1201C822 1196.62 821.576 1192.08 823.593 1188.04C826.822 1181.58 834.224 1177.85 840.737 1182.23C843.127 1183.84 844.475 1186.64 846 1189z"/>
<path style="fill:#f2be2c; stroke:none;" d="M873 1232C872.432 1227.6 871.229 1223.36 870.464 1219C869.66 1214.42 870 1209.63 870 1205C870 1191.76 869.39 1173.64 885 1169C877.585 1166.94 872.932 1175.23 870.529 1181C868.431 1186.03 869 1191.67 869 1197C869 1204.84 868.123 1213.28 869.665 1221C870.372 1224.54 870.257 1229.61 873 1232z"/>
<path style="fill:#1a2e2c; stroke:none;" d="M888.039 1168.48C871.768 1172.09 872 1187.75 872 1201C872 1215.07 869.408 1233.19 886.039 1238.81C888.672 1239.7 891.237 1239.96 894 1240C897.323 1240.04 900.747 1240.19 904 1239.4C920.172 1235.51 921 1220 921 1206C921 1198.29 922.094 1189.46 919.529 1182.04C915.229 1169.6 899.669 1165.91 888.039 1168.48z"/>
<path style="fill:#194c68; stroke:none;" d="M904 1168C905.54 1169.8 906.597 1169.83 909 1170C907.25 1168.75 906.143 1168.39 904 1168M941 1168C944.697 1169.55 949.017 1169 953 1169C953.438 1176.9 958.681 1176.29 962 1170L955 1173C953.533 1166.28 946.587 1168 941 1168z"/>
<path style="fill:#1a2e2c; stroke:none;" d="M953 1169L940 1169L940 1220C940 1224.65 938.146 1234.57 941.179 1238.4C943.407 1241.21 949.831 1240 953 1240C953 1224.69 952.535 1209.3 953.015 1194C953.183 1188.65 956.448 1182.04 962.17 1180.6C970.825 1178.43 975.084 1186.05 976.486 1193C979.446 1207.66 977 1225.04 977 1240L990 1240L990 1196C990.012 1189.81 991.1 1182.75 998.004 1180.66C1004.76 1178.61 1011.57 1184.6 1012.74 1191C1013.73 1196.42 1013 1202.51 1013 1208L1013 1240L1026 1240L1026 1200C1026 1193.79 1027.28 1185.94 1024.6 1180.17C1023.26 1177.28 1021.46 1173.73 1018.86 1171.82C1010.17 1165.42 994.993 1167.88 992 1179C984.257 1176.8 982.147 1168.61 973 1168.11C969.412 1167.91 965.527 1168.75 962.464 1170.67C960.593 1171.85 958.544 1174.89 956.138 1174.81C953.368 1174.72 953.219 1170.94 953 1169z"/>
<path style="fill:#f2be2c; stroke:none;" d="M1016 1168C1019.26 1170.67 1022.55 1173.18 1024.56 1177C1029.04 1185.52 1027 1197.69 1027 1207C1027 1218.37 1027.43 1229.72 1026 1241L1012 1241C1015.44 1242.44 1025.27 1243.6 1027.97 1240.26C1030.89 1236.65 1029 1226.45 1029 1222C1029 1208.96 1030.5 1194.86 1028.24 1182C1027.04 1175.13 1023.26 1169.12 1016 1168z"/>
<path style="fill:#194c68; stroke:none;" d="M91 1169C92.2484 1169.68 92.5484 1169.75 94 1170C92.7517 1169.32 92.4515 1169.25 91 1169z"/>
<path style="fill:#f2be2c; stroke:none;" d="M290 1169C295.751 1172.73 297.934 1179.07 303 1183C301.641 1176.17 297.211 1169.81 290 1169z"/>
<path style="fill:#1a2e2c; stroke:none;" d="M320 1169C320 1185.97 318.13 1204.18 320.425 1221C322.2 1234 328.685 1242.06 342.91 1239.86C347.766 1239.1 350.433 1233.82 355 1232C355.501 1234.69 355.883 1237.27 356 1240L368 1240L368 1169C364.855 1169 359.223 1167.95 356.603 1170.03C353.927 1172.15 355 1178.02 355 1181L355 1210C354.999 1218.35 353.913 1227.92 343.001 1227.74C334.059 1227.59 333.011 1216.65 333 1210L333 1181C333 1178.02 334.073 1172.15 331.397 1170.03C328.777 1167.95 323.145 1169 320 1169z"/>
<path style="fill:#f2be2c; stroke:none;" d="M418 1169C418 1175.75 416.407 1183.34 425 1184L425 1218C425 1224.9 424.355 1231.14 430 1236C424.93 1218.22 426 1200.42 426 1182C417.464 1181.34 420.467 1174.88 418 1169z"/>
<path style="fill:#194c68; stroke:none;" d="M877 1174C880.081 1172.77 882.273 1171.86 884 1169C880.678 1170 878.725 1170.97 877 1174z"/>
<path style="fill:#f2be2c; stroke:none;" d="M982.667 1169.33C982.222 1169.78 983.278 1169.72 983.333 1169.67C983.778 1169.22 982.722 1169.28 982.667 1169.33z"/>
<path style="fill:#194c68; stroke:none;" d="M64 1170L64 1172C65.6352 1171.45 65.4549 1171.64 66 1170L64 1170M94.6667 1170.33C94.2222 1170.78 95.2778 1170.72 95.3333 1170.67C95.7777 1170.22 94.7222 1170.28 94.6667 1170.33z"/>
<path style="fill:#f2be2c; stroke:none;" d="M119 1178C121.794 1176.19 123.532 1173.28 126 1171C121.654 1170.01 119.952 1174.4 119 1178z"/>
<path style="fill:#194c68; stroke:none;" d="M291 1170C292.588 1171.63 294.078 1172.77 296 1174C294.627 1171.45 293.782 1170.81 291 1170M318 1170C318 1186.59 316.029 1204.6 318.59 1221C319.634 1227.69 320.639 1235.87 328 1238C319.873 1228.79 320 1217.72 320 1206L320 1170L318 1170M910 1170L910 1172L912 1172L912 1170L910 1170M939 1170L939 1238C941.189 1232.78 940 1225.62 940 1220L940 1186C940 1180.92 940.981 1174.72 939 1170z"/>
<path style="fill:#f2be2c; stroke:none;" d="M984.667 1170.33C984.222 1170.78 985.278 1170.72 985.333 1170.67C985.778 1170.22 984.722 1170.28 984.667 1170.33z"/>
<path style="fill:#194c68; stroke:none;" d="M96.6667 1171.33C96.2222 1171.78 97.2778 1171.72 97.3333 1171.67C97.7778 1171.22 96.7222 1171.28 96.6667 1171.33z"/>
<path style="fill:#f2be2c; stroke:none;" d="M160 1171L160 1173L162 1173L162 1171L160 1171M986 1171C986.406 1173.09 986.217 1173.02 988 1174C987.316 1172.42 987.195 1172.22 986 1171z"/>
<path style="fill:#194c68; stroke:none;" d="M60 1176C61.9506 1174.74 62.8397 1173.98 64 1172C61.7511 1173.15 61.1535 1173.75 60 1176M98 1172C99.1137 1175.7 100.498 1178.22 104 1180C102.852 1176.21 101.327 1174.14 98 1172M852 1172C853.492 1176.98 856.887 1180.87 858 1186C853.648 1186.2 850.038 1187.44 846 1189C841.578 1179.39 829.251 1176.16 823.593 1187.09C821.675 1190.8 822 1194.96 822 1199C822 1206.13 820.97 1214.13 823 1221C825.092 1212.29 821.789 1202.03 823.214 1193C824.006 1187.98 827.72 1182.89 832.999 1182.15C840.168 1181.15 840.6 1187.76 846.184 1189.19C849.693 1190.09 855.428 1187.67 859 1187C858.863 1181.32 856.944 1175.23 852 1172M912 1172L919 1181C920.12 1176.75 915.787 1173.06 912 1172z"/>
<path style="fill:#f2be2c; stroke:none;" d="M163 1173C163.651 1175.43 164.16 1176.28 166 1178C165.251 1175.75 164.656 1174.69 163 1173M915.667 1173.33C915.222 1173.78 916.278 1173.72 916.333 1173.67C916.778 1173.22 915.722 1173.28 915.667 1173.33M855.333 1174.67C855.278 1174.72 855.222 1175.78 855.667 1175.33C855.722 1175.28 855.778 1174.22 855.333 1174.67z"/>
<path style="fill:#194c68; stroke:none;" d="M875 1174L873 1180C875.07 1178.12 875.971 1176.61 877 1174L875 1174z"/>
<path style="fill:#f2be2c; stroke:none;" d="M917.333 1174.67C917.278 1174.72 917.222 1175.78 917.667 1175.33C917.722 1175.28 917.778 1174.22 917.333 1174.67z"/>
<path style="fill:#194c68; stroke:none;" d="M59 1176C58.0427 1177.52 57.6128 1178.34 57 1180C58.63 1178.49 59.1631 1178.14 59 1176M298.333 1176.67C298.278 1176.72 298.222 1177.78 298.667 1177.33C298.722 1177.28 298.778 1176.22 298.333 1176.67z"/>
<path style="fill:#f2be2c; stroke:none;" d="M856 1176C857.206 1179.4 858.61 1182.39 859 1186C860.73 1181.83 859.335 1178.78 856 1176M918.333 1176.67C918.278 1176.72 918.222 1177.78 918.667 1177.33C918.722 1177.28 918.778 1176.22 918.333 1176.67z"/>
<path style="fill:#194c68; stroke:none;" d="M119 1178C115.023 1191.09 117 1206.45 117 1220C120.553 1211.53 117.449 1199.13 118.09 1190C118.37 1185.99 120.19 1181.88 119 1178z"/>
<path style="fill:#f2be2c; stroke:none;" d="M166 1178L167 1182C167.393 1180.08 167.146 1179.64 166 1178z"/>
<path style="fill:#194c68; stroke:none;" d="M299 1178C297.95 1184.59 291.909 1185.79 286 1185C289.659 1190.11 296.226 1185.36 301 1184C300.826 1181.39 300.582 1180.06 299 1178z"/>
<path style="fill:#f2be2c; stroke:none;" d="M920 1179L921 1184C921.651 1181.77 921.318 1180.93 920 1179z"/>
<path style="fill:#194c68; stroke:none;" d="M76 1226C73.9799 1223.53 71.5717 1221.1 70.564 1218C69.5545 1214.89 70 1211.22 70 1208C70 1199.46 67.4271 1184.7 79.0008 1182.53C85.7891 1181.26 88.4992 1188.29 94 1190C92.3721 1187.55 91.217 1184.03 88.6975 1182.39C87.0639 1181.33 84.8935 1180.74 83 1180.38C64.9595 1176.92 67.9293 1200.99 68.0008 1212C68.0387 1217.84 69.4129 1224.87 76 1226M153 1187C151.374 1193.77 153.003 1202.9 153 1210C152.998 1213.57 153.273 1217.22 151.392 1220.42C148.095 1226.02 139.666 1228.43 135.279 1222.47C131.866 1217.83 133 1210.39 133 1205C133 1197.03 131.551 1179.11 144.985 1182.43C147.532 1183.06 149.69 1184.83 152 1186C149.917 1178.85 137.424 1177.98 133.551 1184.02C129.039 1191.06 131 1202.01 131 1210C131 1213.66 130.716 1217.5 132.083 1220.98C134.934 1228.24 149.028 1230.28 152.843 1222.72C154.465 1219.51 154 1215.48 154 1212C154 1204.1 155.451 1194.53 153 1187M268 1184C275.001 1180.48 278.864 1181.63 286 1184C281.807 1178.97 271.767 1177.84 268 1184M953 1240C955.921 1235.72 955 1230.01 955 1225C955 1214.29 952.62 1200.34 955.433 1190C958.042 1180.41 969.353 1180.16 974 1188C975.477 1183.74 971.724 1181.86 967.985 1180.9C962.425 1179.47 957.924 1181.05 954.738 1186.04C951.778 1190.68 953 1197.74 953 1203L953 1240M992 1186C996.271 1182.56 999.476 1181.06 1005 1181C999.861 1178.85 993.737 1180.45 992 1186M56 1181C53.5726 1188.17 54 1195.52 54 1203C54 1212.02 53.2625 1220.59 57 1229C58.0391 1224.6 55.1835 1220.48 55.0185 1216C54.7286 1208.12 54.5145 1199.86 55.0903 1192C55.3644 1188.26 57.1009 1184.63 56 1181M104 1181C103.341 1183.36 102.733 1184.24 101 1186C104.491 1186.78 105.068 1183.81 104 1181z"/>
<path style="fill:#f2be2c; stroke:none;" d="M117 1181L117 1186C117.83 1183.97 117.83 1183.03 117 1181z"/>
<path style="fill:#194c68; stroke:none;" d="M166 1181C167.262 1190.98 167 1200.94 167 1211C167 1215.99 167.596 1221.39 165.312 1226C156.294 1244.21 129.516 1244.64 120 1227C119.037 1231.52 123.202 1235.77 127.043 1237.76C134.202 1241.46 144.08 1242.38 151.985 1240.47C171.065 1235.85 168 1213.95 168 1199C168 1193.41 169.494 1185.61 166 1181z"/>
<path style="fill:#f2be2c; stroke:none;" d="M278 1196C275.948 1195.13 274.253 1195.05 272 1195C271.518 1192.64 271.364 1192.48 269 1192C269.231 1184.9 273.165 1182.36 280 1182C271.925 1178.62 261.184 1187.99 270.344 1194.35C272.647 1195.94 275.32 1195.94 278 1196z"/>
<path style="fill:#194c68; stroke:none;" d="M420 1181C422.052 1181.87 423.747 1181.95 426 1182C423.948 1181.13 422.253 1181.05 420 1181M872 1181L872 1184C872.696 1182.45 872.696 1182.55 872 1181M892 1181C895.715 1182.6 900.309 1182.11 903.232 1185.42C905.332 1187.8 905.869 1190.95 905.982 1194C906.273 1201.9 908.922 1217.91 902.525 1223.77C896.848 1228.97 889.105 1225.06 886.765 1218.71C885.335 1214.84 886 1210.06 886 1206L886 1188C884.019 1192.72 885 1198.92 885 1204C885 1207.98 884.815 1212.02 885.043 1216C885.548 1224.8 896.826 1232.51 904.08 1224.57C910.015 1218.07 907.039 1202.2 906.999 1194C906.982 1190.5 907.163 1186.64 904.576 1183.92C901.255 1180.43 896.387 1181 892 1181z"/>
<path style="fill:#f2be2c; stroke:none;" d="M993 1186C997.182 1184.37 1000.44 1183.05 1005 1183L1005 1181C999.872 1181.02 995.684 1181.16 993 1186M76 1183C78.6163 1183.63 81.2832 1183.11 84 1183C81.1481 1181.81 78.9396 1182.14 76 1183M136 1185C143.473 1182.67 145.702 1184.26 152 1188C149.221 1182.33 140.21 1179.04 136 1185M280 1182C281.889 1183.78 283.657 1184.88 286 1186C284.392 1183.43 282.944 1182.71 280 1182z"/>
<path style="fill:#194c68; stroke:none;" d="M426 1182L427 1230C428.552 1226.3 428 1221.98 428 1218L428 1195C428 1190.52 428.796 1185.69 426 1182z"/>
<path style="fill:#f2be2c; stroke:none;" d="M442 1222C445.105 1214.6 442.999 1203.01 443 1195C443 1188.02 442.889 1183.26 451 1183C448.439 1181.93 444.147 1181.18 442.603 1184.32C441.064 1187.45 442 1192.6 442 1196L442 1222z"/>
<path style="fill:#194c68; stroke:none;" d="M809 1182C804.963 1194.74 805.397 1213.18 809 1226C810.285 1222.71 809.191 1219.48 809.039 1216C808.72 1208.7 808.917 1201.3 809.004 1194C809.051 1190.01 810.462 1185.75 809 1182z"/>
<path style="fill:#f2be2c; stroke:none;" d="M825 1188C831.988 1183.86 834.407 1183.47 842 1186C838.227 1178.8 828.018 1181.74 825 1188M888 1187C894.357 1183 897.246 1183.24 904 1186C900.043 1180.22 891.074 1180.9 888 1187z"/>
<path style="fill:#194c68; stroke:none;" d="M920 1182C920.544 1194.68 921 1207.26 921 1220C924.104 1212.6 922.003 1201.01 922 1193C921.998 1189.02 922.297 1185.36 920 1182z"/>
<path style="fill:#f2be2c; stroke:none;" d="M960 1182C963.121 1183.4 966.589 1183.73 970 1184C966.96 1181.7 963.732 1182 960 1182z"/>
<path style="fill:#194c68; stroke:none;" d="M1005 1182C1012.32 1188.59 1012 1196.83 1012 1206L1012 1241L1026 1241C1022.04 1239.34 1017.26 1240 1013 1240L1013 1197C1013 1190.29 1012.66 1183.59 1005 1182z"/>
<path style="fill:#fafbfa; stroke:none;" d="M138 1225C140.836 1224.99 144.123 1225.31 146.776 1224.11C154.392 1220.66 152 1207.56 152 1201C152 1196.21 153.073 1190.05 149.713 1186.11C146.005 1181.76 138.285 1182.21 135.318 1187.19C133.753 1189.82 134.006 1193.06 134 1196L134 1209C134 1215.61 135.252 1219.17 138 1225M905 1221L905 1204C905 1200.34 905.063 1196.66 904.995 1193C904.837 1184.43 894.814 1178.94 888.603 1186.63C885.618 1190.33 887 1197.55 887 1202C887 1210.66 884.891 1226.89 898.829 1223.7C900.98 1223.21 902.98 1221.86 905 1221z"/>
<path style="fill:#f2be2c; stroke:none;" d="M1006 1183C1006.48 1185.36 1006.64 1185.52 1009 1186C1009 1184.2 1008.99 1184.48 1008 1183L1006 1183M71 1189L76 1185C72.8867 1184.32 72.0054 1186.25 71 1189M86 1184L86 1186L88 1186L88 1184L86 1184M168 1184C168 1196.36 170.118 1210.92 167.481 1223C166.457 1227.7 163.481 1231.5 162 1236C175.01 1225.37 170 1199.06 170 1184L168 1184z"/>
<path style="fill:#194c68; stroke:none;" d="M266 1184L266 1192C267.161 1189.23 267.161 1186.77 266 1184z"/>
<path style="fill:#f2be2c; stroke:none;" d="M298 1184C299.248 1184.68 299.548 1184.75 301 1185C299.752 1184.32 299.452 1184.25 298 1184z"/>
<path style="fill:#194c68; stroke:none;" d="M871 1184C868.085 1196.24 869.433 1211.6 871 1224C872.552 1220.3 872 1215.98 872 1212C872 1203.73 874.206 1191.64 871 1184M887 1184L887 1187C888.015 1185.86 888.309 1185.39 889 1184L887 1184z"/>
<path style="fill:#f2be2c; stroke:none;" d="M971 1184C971.776 1186.13 972.13 1186.77 974 1188C973.224 1185.87 972.87 1185.23 971 1184M296.667 1185.33C296.222 1185.78 297.278 1185.72 297.333 1185.67C297.778 1185.22 296.722 1185.28 296.667 1185.33M88 1186L88 1188L90 1188L90 1186L88 1186M116 1186C115.495 1197.77 113.332 1210.31 115.885 1222C116.927 1226.77 117.62 1231.31 122 1234C118.371 1224.78 117 1216.95 117 1207C117 1200.58 118.497 1191.95 116 1186M134 1186L134 1188C135.635 1187.45 135.455 1187.64 136 1186L134 1186M294.667 1186.33C294.222 1186.78 295.278 1186.72 295.333 1186.67C295.778 1186.22 294.722 1186.28 294.667 1186.33M842 1186C843.113 1189.63 844.17 1191.34 848 1192C846.412 1189.56 844.284 1187.82 842 1186M922 1186C922 1200.12 922.624 1214.07 920 1228C925.679 1220.62 923 1205.88 923 1197C923 1193.3 923.441 1189.43 922 1186M992 1186C990.223 1192.01 991 1198.76 991 1205L991 1239C992.981 1234.28 992 1228.08 992 1223L992 1198C992.002 1194.12 992.893 1189.72 992 1186z"/>
<path style="fill:#194c68; stroke:none;" d="M94 1188C96.2393 1188.81 97.647 1188.53 100 1188C97.7607 1187.19 96.353 1187.47 94 1188z"/>
<path style="fill:#f2be2c; stroke:none;" d="M286.667 1187.33C286.222 1187.78 287.278 1187.72 287.333 1187.67C287.778 1187.22 286.722 1187.28 286.667 1187.33M291 1187C292.248 1187.68 292.548 1187.75 294 1188C292.752 1187.32 292.452 1187.25 291 1187M856.667 1187.33C856.222 1187.78 857.278 1187.72 857.333 1187.67C857.778 1187.22 856.722 1187.28 856.667 1187.33M886 1187L886 1220C888.701 1213.56 887 1203.95 887 1197C887 1193.58 887.328 1190.17 886 1187z"/>
<path style="fill:#194c68; stroke:none;" d="M990 1187L990 1240C991.875 1235.53 991 1229.81 991 1225L991 1200C991 1195.74 991.661 1190.96 990 1187z"/>
<path style="fill:#f2be2c; stroke:none;" d="M133 1188L133 1219C134.328 1215.83 134 1212.42 134 1209C134 1202.58 135.497 1193.95 133 1188M288 1188C289.248 1188.68 289.548 1188.75 291 1189C289.752 1188.32 289.452 1188.25 288 1188M824 1188C821.991 1196.44 821.174 1210.49 823.558 1218.91C824.696 1222.93 827.892 1225.48 832.004 1225.89C840.925 1226.77 849.113 1213.38 857.353 1222.73C860.623 1226.44 854.849 1233.61 851.942 1235.78C843.367 1242.19 832.058 1241.87 822 1240C825.363 1242.3 829.017 1242 833 1242C841.484 1242 848.424 1242.31 854.867 1235.82C857.239 1233.42 861.796 1226.97 860.343 1223.3C858.98 1219.87 850.412 1217.53 847.043 1217.56C843.272 1217.59 841.743 1221.32 838.896 1223.15C836.193 1224.88 833.095 1224.93 830 1225L830 1222L826 1222C825.443 1214.94 825 1208.1 825 1201C825 1196.74 825.661 1191.96 824 1188M850 1188C852.052 1188.87 853.747 1188.95 856 1189C853.948 1188.13 852.253 1188.05 850 1188M905 1188L905 1221C906.328 1217.83 906 1214.42 906 1211C906 1204.05 907.701 1194.44 905 1188M974 1188L974 1239C975.769 1234.78 975 1229.54 975 1225L975 1201C975 1196.74 975.661 1191.96 974 1188M1010 1188L1010 1240L1012 1240L1012 1206C1012 1200.06 1012.87 1193.39 1010 1188M70 1189L70 1210C70.0003 1214.66 69.5146 1218.59 73 1222C71.6548 1215.45 71 1209.74 71 1203C71 1198.46 71.7687 1193.22 70 1189M152 1189C152 1197.61 153.333 1207.45 151.737 1215.91C151.212 1218.69 149.717 1221.25 149 1224C155.036 1217.91 153 1207.94 153 1200C153 1196.3 153.441 1192.43 152 1189M201 1189L201 1240C202.769 1235.78 202 1230.54 202 1226L202 1202C202 1197.74 202.661 1192.96 201 1189M848.667 1189.33C848.222 1189.78 849.278 1189.72 849.333 1189.67C849.778 1189.22 848.722 1189.28 848.667 1189.33z"/>
<path style="fill:#194c68; stroke:none;" d="M975 1189L975 1227C975 1230.32 973.649 1237.63 976.603 1239.97C979.55 1242.31 986.435 1241 990 1241C986.041 1239.34 981.263 1240 977 1240L977 1206C977 1200.4 977.969 1193.96 975 1189M267 1192C270.201 1198.35 283.246 1199.65 290 1200C285.279 1196.72 279.382 1197.05 274.015 1195.57C271.467 1194.88 269.329 1193.18 267 1192z"/>
<path style="fill:#f2be2c; stroke:none;" d="M280 1196C282.603 1197.56 284.978 1197.86 288 1198C285.397 1196.44 283.022 1196.14 280 1196M288 1198C292.879 1201.58 297.785 1203.12 300.695 1209C311.698 1231.24 286.523 1245.68 267 1240.37C258.126 1237.95 242.716 1225.61 257.995 1219.97C259.986 1219.24 261.908 1219.11 264 1219C259.347 1215.55 249.536 1219.7 248.789 1225.84C248.263 1230.17 254.095 1236.06 257.326 1238.28C269.77 1246.81 295.515 1244.51 302.991 1230C309.34 1217.68 302.902 1198.69 288 1198z"/>
<path style="fill:#194c68; stroke:none;" d="M291 1200C292.223 1201.2 292.42 1201.32 294 1202C293.02 1200.22 293.092 1200.41 291 1200M294.667 1202.33C294.222 1202.78 295.278 1202.72 295.333 1202.67C295.778 1202.22 294.722 1202.28 294.667 1202.33M296 1203L300 1210C300.72 1206.63 298.825 1204.68 296 1203M265 1207C266.248 1207.68 266.548 1207.75 268 1208C266.752 1207.32 266.452 1207.25 265 1207M269 1208C273.824 1211.04 279.374 1211.95 285 1212C280.147 1209.65 274.4 1208.13 269 1208z"/>
<path style="fill:#fafbfa; stroke:none;" d="M596 1227C599.323 1227 602.675 1227.13 605.995 1226.98C612.215 1226.71 616.992 1217.77 612.397 1212.57C607.036 1206.51 594.546 1211.03 594.238 1219C594.134 1221.69 595.321 1224.43 596 1227z"/>
<path style="fill:#194c68; stroke:none;" d="M285 1212C286.761 1215.47 287.882 1218.06 288 1222L290 1222C289.983 1217.22 290.098 1213.55 285 1212M302 1212C302 1221.14 299.002 1226.62 296 1235C303.403 1230.85 305.163 1219.54 302 1212z"/>
<path style="fill:#f2be2c; stroke:none;" d="M76 1225C86.9604 1229.6 92.1654 1214.38 102.678 1222.92C108.464 1227.63 99.4208 1235.37 95.5748 1237.81C84.7199 1244.72 73.103 1239.19 62 1237C72.1168 1245.77 92.2544 1244.92 101.786 1235.56C110.124 1227.37 104.898 1217.87 94.0046 1217.55C89.6338 1217.43 88.0673 1221.15 84.8711 1223.27C82.1812 1225.06 79.0936 1224.97 76 1225z"/>
<path style="fill:#194c68; stroke:none;" d="M88 1225C91.718 1222.64 93.3269 1220.76 98 1221C93.3029 1217.81 89.9315 1220.18 88 1225z"/>
<path style="fill:#f2be2c; stroke:none;" d="M134 1219C134.456 1222.12 135.185 1223.53 138 1225C137.206 1222.32 136.076 1220.88 134 1219z"/>
<path style="fill:#194c68; stroke:none;" d="M254 1221C256.66 1221.89 259.247 1220.56 261.907 1221.4C264.461 1222.2 266.073 1224.67 268.325 1226C273.911 1229.3 286.634 1229.89 288 1222C283.558 1225.01 278.612 1228.05 273.004 1226.34C268.846 1225.08 266.689 1220.78 262.7 1219.53C259.754 1218.6 256.727 1220.01 254 1221M843 1224C846.318 1220.76 848.479 1220.7 853 1221C848.694 1218.06 844.185 1218.57 843 1224z"/>
<path style="fill:#f2be2c; stroke:none;" d="M264.667 1220.33C264.222 1220.78 265.278 1220.72 265.333 1220.67C265.778 1220.22 264.722 1220.28 264.667 1220.33z"/>
<path style="fill:#194c68; stroke:none;" d="M334.333 1220.67C334.278 1220.72 334.222 1221.78 334.667 1221.33C334.722 1221.28 334.778 1220.22 334.333 1220.67M98.6667 1221.33C98.2222 1221.78 99.2778 1221.72 99.3333 1221.67C99.7778 1221.22 98.7222 1221.28 98.6667 1221.33M854 1221L858 1227C859.433 1223.3 857.566 1221.78 854 1221z"/>
<path style="fill:#f2be2c; stroke:none;" d="M888 1221C890.771 1227.61 901.752 1228.4 904 1221C897.34 1223.98 894.66 1223.98 888 1221M54 1222L54 1226C54.7102 1224.24 54.7102 1223.76 54 1222M73.3333 1222.67C73.2778 1222.72 73.2222 1223.78 73.6667 1223.33C73.7222 1223.28 73.7778 1222.22 73.3333 1222.67z"/>
<path style="fill:#194c68; stroke:none;" d="M101 1222C102.248 1222.68 102.548 1222.75 104 1223C102.752 1222.32 102.452 1222.25 101 1222M250 1228L254 1222C251.15 1223.56 250.497 1224.79 250 1228z"/>
<path style="fill:#f2be2c; stroke:none;" d="M267 1222C270.676 1228.45 277.716 1226.79 284 1226C278.771 1223.8 272.533 1224.14 267 1222z"/>
<path style="fill:#194c68; stroke:none;" d="M335 1222C337.228 1227.96 342.348 1228.67 348 1227C343.47 1225.09 339.407 1224.77 335 1222M353.333 1222.67C353.278 1222.72 353.222 1223.78 353.667 1223.33C353.722 1223.28 353.778 1222.22 353.333 1222.67M825.333 1222.67C825.278 1222.72 825.222 1223.78 825.667 1223.33C825.722 1223.28 825.778 1222.22 825.333 1222.67M920 1222C918.557 1225.67 916.827 1229.14 916 1233C919.373 1230.16 921.572 1226.39 920 1222M104 1223C103.689 1226.12 102.802 1228.97 102 1232C104.563 1229.26 105.446 1226.55 104 1223z"/>
<path style="fill:#f2be2c; stroke:none;" d="M405 1223C406.522 1224.78 408.806 1224.91 410.401 1226.6C412.947 1229.29 412 1234.6 412 1238C415.087 1230.64 413.056 1224.12 405 1223M776 1239L778 1239L778 1224L792 1224C788.615 1222.58 778.8 1221.28 776.742 1225.32C774.887 1228.96 776 1235.01 776 1239M74.6667 1224.33C74.2222 1224.78 75.2778 1224.72 75.3333 1224.67C75.7778 1224.22 74.7222 1224.28 74.6667 1224.33z"/>
<path style="fill:#194c68; stroke:none;" d="M118.333 1224.67C118.278 1224.72 118.222 1225.78 118.667 1225.33C118.722 1225.28 118.778 1224.22 118.333 1224.67z"/>
<path style="fill:#f2be2c; stroke:none;" d="M138 1225C141.582 1226.5 145.329 1226.09 149 1225C145.59 1223.95 141.61 1224.97 138 1225z"/>
<path style="fill:#194c68; stroke:none;" d="M348 1225C350.046 1225.75 350.596 1225.66 352 1224L348 1225z"/>
<path style="fill:#f2be2c; stroke:none;" d="M445 1224C447.311 1225.39 449.309 1225.77 452 1226C452 1229.64 453.085 1235.52 450.972 1238.68C446.89 1244.8 435.013 1238.43 430 1237C436.826 1243.04 444.431 1242 453 1242C453.514 1237.94 456.21 1228.06 452.397 1225.03C450.516 1223.53 447.232 1224.01 445 1224z"/>
<path style="fill:#194c68; stroke:none;" d="M778 1224C778 1227.97 776.447 1236.14 779.028 1239.4C781.328 1242.3 791.654 1242 793.397 1238.57C795.291 1234.83 794 1228.11 794 1224L778 1224M830 1226L830 1228C835.093 1228 838.719 1227.98 843 1225C838.998 1224.16 834.235 1225.96 830 1226M872 1224C872.202 1228.32 873.269 1230.71 876 1234C876.537 1230.63 873.988 1226.71 872 1224M86.6667 1225.33C86.2222 1225.78 87.2778 1225.72 87.3333 1225.67C87.7778 1225.22 86.7222 1225.28 86.6667 1225.33M405 1225C407.013 1226.22 408.659 1226.65 411 1227C410.999 1234.82 411.036 1239.89 402 1240C404.365 1240.99 408.128 1241.77 410.397 1239.97C413.06 1237.86 413.01 1228.16 410.401 1226.03C408.949 1224.84 406.733 1225.06 405 1225z"/>
<path style="fill:#f2be2c; stroke:none;" d="M794 1225L794 1240C795.74 1235.85 795.74 1229.15 794 1225z"/>
<path style="fill:#194c68; stroke:none;" d="M827.667 1225.33C827.222 1225.78 828.278 1225.72 828.333 1225.67C828.778 1225.22 827.722 1225.28 827.667 1225.33z"/>
<path style="fill:#f2be2c; stroke:none;" d="M55 1226C55.8592 1229.4 57.0801 1231.99 60 1234C58.9327 1230.66 57.5731 1228.38 55 1226z"/>
<path style="fill:#194c68; stroke:none;" d="M78 1226C80.3316 1226.98 82.4566 1226.98 85 1227C82.6685 1226.02 80.5433 1226.02 78 1226z"/>
<path style="fill:#1a2e2c; stroke:none;" d="M781.434 1227.03C773.905 1232.21 782.524 1245.21 790.397 1238.97C796.715 1233.97 789.401 1221.54 781.434 1227.03z"/>
<path style="fill:#194c68; stroke:none;" d="M810 1227C810.651 1229.43 811.16 1230.28 813 1232C812.199 1229.9 811.503 1228.66 810 1227M857 1227C856.014 1228.48 856 1228.2 856 1230C857.289 1228.56 857.401 1228.77 857 1227M251 1228C251.936 1229.95 252.392 1230.55 254 1232C253.064 1230.05 252.608 1229.45 251 1228M59.3333 1230.67C59.2778 1230.72 59.2222 1231.78 59.6667 1231.33C59.7222 1231.28 59.7778 1230.22 59.3333 1230.67M428 1230L429 1234C429.751 1231.95 429.656 1231.4 428 1230M854 1230L853 1235C855.179 1233.46 855.573 1232.64 856 1230L854 1230z"/>
<path style="fill:#f2be2c; stroke:none;" d="M918 1230L918 1232C919.635 1231.45 919.455 1231.64 920 1230L918 1230z"/>
<path style="fill:#194c68; stroke:none;" d="M60 1232C61.2728 1236.29 63.6647 1237.52 68 1238C65.505 1235.87 62.802 1233.69 60 1232M101.333 1232.67C101.278 1232.72 101.222 1233.78 101.667 1233.33C101.722 1233.28 101.778 1232.22 101.333 1232.67M814 1232C817.205 1243.45 833.981 1241 843 1241C838.607 1239.16 833.66 1240.46 829 1239.79C822.878 1238.91 818.642 1235.7 814 1232z"/>
<path style="fill:#f2be2c; stroke:none;" d="M874 1232C875.155 1234.13 875.882 1234.78 878 1236C876.919 1233.88 876.121 1233.08 874 1232M917 1232C905.637 1244.3 892.244 1240.89 878 1237C885.444 1243.46 898.847 1243.74 908 1240.59C911.878 1239.26 917.096 1236.46 917 1232z"/>
<path style="fill:#194c68; stroke:none;" d="M254.667 1233.33C254.222 1233.78 255.278 1233.72 255.333 1233.67C255.778 1233.22 254.722 1233.28 254.667 1233.33M98 1236L101 1235C99.2218 1234.04 98.9786 1234.23 98 1236z"/>
<path style="fill:#f2be2c; stroke:none;" d="M122.333 1234.67C122.278 1234.72 122.222 1235.78 122.667 1235.33C122.722 1235.28 122.778 1234.22 122.333 1234.67z"/>
<path style="fill:#194c68; stroke:none;" d="M256.667 1235.33C256.222 1235.78 257.278 1235.72 257.333 1235.67C257.778 1235.22 256.722 1235.28 256.667 1235.33M294 1235L294 1237C295.635 1236.45 295.455 1236.64 296 1235L294 1235M430 1235C431.229 1236.87 431.868 1237.22 434 1238C432.771 1236.13 432.132 1235.78 430 1235z"/>
<path style="fill:#f2be2c; stroke:none;" d="M814 1235L814 1237L816 1237L816 1235L814 1235z"/>
<path style="fill:#194c68; stroke:none;" d="M851 1235L851 1237C852.635 1236.45 852.455 1236.64 853 1235L851 1235M878 1235C879.229 1236.87 879.868 1237.22 882 1238C880.771 1236.13 880.132 1235.78 878 1235M912 1235L912 1237L914 1237L914 1235L912 1235M92 1240L98 1237C94.9394 1236.18 93.5357 1237.36 92 1240M258 1236C259.314 1237.62 259.877 1237.69 262 1238C260.542 1236.92 259.752 1236.56 258 1236z"/>
<path style="fill:#f2be2c; stroke:none;" d="M155 1239C157.092 1239.59 158.032 1239.01 160 1238C157.908 1237.41 156.968 1237.99 155 1239z"/>
<path style="fill:#194c68; stroke:none;" d="M266 1240C273.618 1243.2 285.689 1241.25 293 1238C289.497 1237.03 286.502 1239.06 283 1239.67C277.521 1240.62 271.547 1240 266 1240M394 1237C395.248 1237.68 395.548 1237.75 397 1238C395.752 1237.32 395.452 1237.25 394 1237z"/>
<path style="fill:#f2be2c; stroke:none;" d="M816 1237C817.465 1239.12 818.457 1239.47 821 1240C819.536 1238.03 818.394 1237.65 816 1237z"/>
<path style="fill:#194c68; stroke:none;" d="M848.667 1237.33C848.222 1237.78 849.278 1237.72 849.333 1237.67C849.778 1237.22 848.722 1237.28 848.667 1237.33M910.667 1237.33C910.222 1237.78 911.278 1237.72 911.333 1237.67C911.778 1237.22 910.722 1237.28 910.667 1237.33z"/>
<path style="fill:#f2be2c; stroke:none;" d="M128 1238C129.223 1239.2 129.42 1239.32 131 1240C129.777 1238.8 129.58 1238.68 128 1238z"/>
<path style="fill:#194c68; stroke:none;" d="M262.667 1238.33C262.222 1238.78 263.278 1238.72 263.333 1238.67C263.778 1238.22 262.722 1238.28 262.667 1238.33M328.667 1238.33C328.222 1238.78 329.278 1238.72 329.333 1238.67C329.778 1238.22 328.722 1238.28 328.667 1238.33M397 1238C398.54 1239.8 399.597 1239.83 402 1240C400.25 1238.75 399.143 1238.39 397 1238M434 1238C435.458 1239.08 436.248 1239.44 438 1240C436.457 1238.73 435.952 1238.51 434 1238M846.667 1238.33C846.222 1238.78 847.278 1238.72 847.333 1238.67C847.778 1238.22 846.722 1238.28 846.667 1238.33M882 1238C884.013 1239.22 885.659 1239.65 888 1240C885.958 1238.58 884.489 1238.25 882 1238M906 1238C907.249 1238.68 907.548 1238.75 909 1239C907.752 1238.32 907.452 1238.25 906 1238M940.333 1238.67C940.278 1238.72 940.222 1239.78 940.667 1239.33C940.722 1239.28 940.778 1238.22 940.333 1238.67M70.6667 1239.33C70.2222 1239.78 71.2778 1239.72 71.3333 1239.67C71.7778 1239.22 70.7222 1239.28 70.6667 1239.33M264.667 1239.33C264.222 1239.78 265.278 1239.72 265.333 1239.67C265.778 1239.22 264.722 1239.28 264.667 1239.33M330 1239C332.971 1242.4 339.743 1241 344 1241C339.807 1239.24 334.537 1239.84 330 1239M843 1239C844.249 1239.68 844.548 1239.75 846 1240C844.752 1239.32 844.452 1239.25 843 1239M904.667 1239.33C904.222 1239.78 905.278 1239.72 905.333 1239.67C905.778 1239.22 904.722 1239.28 904.667 1239.33M72 1240C77.2224 1242.19 84.3678 1241 90 1241C84.7776 1238.81 77.6322 1240 72 1240z"/>
<path style="fill:#f2be2c; stroke:none;" d="M131 1240C135.906 1243.86 150.609 1245.03 155 1240C146.914 1241.02 139.071 1241.5 131 1240M792.667 1240.33C792.222 1240.78 793.278 1240.72 793.333 1240.67C793.778 1240.22 792.722 1240.28 792.667 1240.33z"/>
<path style="fill:#194c68; stroke:none;" d="M888 1240C892.724 1241.98 898.91 1241 904 1241C899.276 1239.02 893.09 1240 888 1240M941 1240C944.698 1241.55 949.017 1241 953 1241C949.303 1239.45 944.983 1240 941 1240z"/>
<path style="fill:#f2be2c; stroke:none;" d="M779 1241C782.959 1242.66 787.737 1242 792 1242C788.041 1240.34 783.263 1241 779 1241M976 1241C980.216 1242.77 985.459 1242 990 1242C985.784 1240.23 980.541 1241 976 1241z"/>
</svg>
