<?xml version="1.0" standalone="yes"?>
<svg xmlns="http://www.w3.org/2000/svg" width="557" height="86">
<path style="fill:#ffffff; stroke:none;" d="M0 0L0 29C5.19782 25.4685 8.09579 29.1252 12 33.0008L29 49.9961C31.1479 52.122 35.4238 54.8482 36.3873 57.8256C37.1993 60.3346 33.692 60.9078 31.9838 60.8866C27.7203 60.8336 24.9791 57.8048 22 55.1651C19.314 52.7852 16.5623 50.507 14.0039 47.9853C9.40918 43.4567 5.35222 38.6698 0 35L0 86L557 86L557 31C554.556 31.8323 551.768 33.059 549.438 31.2145C546.453 28.8525 547.452 23.9707 551.104 22.9522C553.105 22.3942 555.153 23.3712 557 24L557 0L52 0C60.6379 4.88874 67.0212 10.7987 73.9846 18C76.1322 20.221 81.3941 25.1006 77.5224 28.1991C74.0806 30.9535 69.3705 25.7873 67 23.7137C59.6173 17.2557 49.1699 8.94181 45 0L0 0z"/>
<path style="fill:#dc2056; stroke:none;" d="M45 0C47.5929 9.23787 59.8313 18.4786 67 24.571C69.6375 26.8125 74.7172 31.8539 78.2423 28.2531C82.1535 24.2578 75.5329 18.5726 72.9961 16C64.3595 7.24112 57.8936 0.106743 45 0M28.1489 1.74692C24.7084 3.23898 25.491 6.50684 27.3225 9.00077C30.0986 12.7808 38.3623 23.1698 43.8519 21.338C47.523 20.113 47.0358 15.6252 45.3958 13C42.4987 8.36242 34.4677 -0.993362 28.1489 1.74692M13.0594 11.0864C4.93821 14.7877 14.8324 22.831 18 26L55 63C58.2555 66.2555 65.4095 76.5008 70.8873 73.9136C79.1116 70.0292 68.1084 61.1096 65 58L28 21C24.8019 17.8019 18.4389 8.63471 13.0594 11.0864z"/>
<path style="fill:#25255a; stroke:none;" d="M119.001 22.5579C111.637 24.4998 106.58 34.3063 112.434 40.6096C115.884 44.3242 121.464 45.0427 125.999 46.6991C128.253 47.5224 132.529 48.901 132.079 52.0502C130.542 62.7989 114.738 51.2571 110.712 55.6389C108.349 58.211 111.924 60.7118 114.044 61.517C118.934 63.3742 125.957 63.8269 130.999 62.3619C138.486 60.1868 143.208 51.0365 137.347 44.5324C133.994 40.8105 128.525 40.0319 124.001 38.5602C121.723 37.8192 117.485 36.4317 117.485 33.3989C117.485 24.6251 131.913 30.4692 135.681 29.0841C137.95 28.2501 138.051 25.436 136.392 23.9344C134.078 21.8399 129.893 22.0338 127 22.0039C124.354 21.9765 121.581 21.8774 119.001 22.5579M153.584 23.0864C150.388 25.3309 152 34.5909 152 38C152 43.4507 151.096 49.9338 153.573 54.9853C157.838 63.6876 171.371 65.5996 178.906 60.1458C187.252 54.1048 185.001 41.9619 185 33C185 30.6956 186.023 21.2183 181.259 22.7515C178.097 23.7694 179.001 29.529 179 32C178.996 39.8573 180.504 55.5618 169 56.392C155.868 57.3396 158.054 37.9017 157.999 30C157.985 27.979 157.738 20.1696 153.584 23.0864M210 29C210 37.666 209.941 46.3342 210.001 55C210.016 57.2136 209.575 62.3642 213 62.3642C216.425 62.3642 215.984 57.2136 215.999 55C216.059 46.3342 216 37.666 216 29C219.459 29 224.661 29.8864 227.667 27.8218C234.793 22.9268 221.262 22.0001 219 22C213.354 21.9996 203.417 20.0925 198.323 22.7423C195.526 24.1969 196.701 27.3353 199.149 28.3974C202.245 29.7407 206.691 29 210 29M248 46L267 46C267 49.8008 265.42 58.2 268.027 61.2384C269.781 63.2831 272.479 61.9263 273.397 59.848C274.644 57.0232 274 53.0117 274 50L274 32C273.995 29.5963 274.396 26.4304 272.973 24.3225C271.278 21.812 268.164 22.3173 267.318 25.1489C266.089 29.2629 267 34.7261 267 39L248 39C248 34.815 249.272 27.9526 246.822 24.3225C245.481 22.3364 242.769 21.9774 241.603 24.3225C240.168 27.2053 241 31.8711 241 35L241 54C241.005 56.1915 240.51 59.546 242.024 61.3773C243.775 63.4955 246.358 61.8346 247.258 59.8511C249.015 55.9775 248 50.1681 248 46M296 56L296 46C300.919 46 306.093 46.4622 310.981 45.8912C313.129 45.6403 315.889 44.7765 315.534 42.0394C315.232 39.7121 312.927 39.2357 310.981 39.0586C306.059 38.6111 300.942 39 296 39L296 29C301.493 29 307.556 29.732 312.981 28.8519C315.073 28.5124 318.088 27.1053 317.248 24.4144C316.493 21.9933 312.996 22.0785 310.999 22.0154C306.033 21.8585 292.013 19.6293 289.603 25.1481C288.476 27.7305 289 31.2538 289 34L289 53C289.005 55.6592 288.533 59.3257 290.603 61.3966C294.258 65.0514 306.169 63.1372 310.999 62.9846C313.133 62.9171 316.356 62.9674 317.338 60.5856C318.38 58.0574 316.097 56.5146 313.941 56.1481C308.241 55.1789 301.78 56 296 56M337 48C341.774 48 348.855 46.7225 352.566 50.4336C355.264 53.1314 353.855 61.4191 358.09 62.0787C360.958 62.5255 361.795 59.1244 361.927 56.9954C362.226 52.1748 360.559 48.1085 357 45C358.418 43.4044 359.902 41.9234 360.846 39.9753C367.288 26.678 353.252 22.0165 343 22C339.847 21.9949 335.085 21.1813 332.318 23.0278C329.484 24.9187 330.006 29.054 330 32L330 52C330.001 54.6224 329.431 58.3779 331.027 60.6628C332.637 62.9676 335.355 62.1919 336.397 59.8472C337.869 56.5323 337 51.5595 337 48M377 22C375.298 31.1669 375.996 40.7055 376 50C376.001 53.3535 375.394 57.806 377.742 60.5664C381.323 64.7752 391.062 63.0883 396 62.9954C397.839 62.9608 400.073 63.0832 401.663 61.973C406.355 58.6955 399.784 56.1406 396.999 56.0193C395.337 55.9469 393.663 56.0001 392 56L383 56L383 34C383 31.1031 383.697 27.0031 382.398 24.3179C381.335 22.1196 379.103 22.1639 377 22M429.274 23.0471C426.383 24.6944 425.218 29.1382 424 32C421.024 38.9907 418.048 45.9751 415.154 53C414.235 55.2297 411.434 61.0812 415.3 62.2485C419.472 63.5079 420.985 56.5589 423.394 54.6034C426.422 52.1451 432.321 52.7294 435.985 53.0586C441.245 53.5312 441.096 57.2723 443.993 60.6775C445.054 61.9247 446.829 63.0202 448.408 61.9136C451.378 59.8324 448.729 54.4276 447.715 52C444.262 43.7295 441.267 34.9572 437.096 27.0193C435.6 24.1736 432.762 21.059 429.274 23.0471M468 33C473.844 40.369 478.928 48.3156 484.345 55.9992C486.299 58.7711 488.988 62.9483 492.942 62.534C496.761 62.1337 496.94 57.964 496.995 55C497.127 48.0053 497 40.996 497 34C497 31.1289 497.716 26.9733 496.397 24.3225C493.122 17.738 490.038 28.5533 490.004 31L490 39L490 51C484.54 43.8966 479.825 36.2526 474.572 29.0008C472.62 26.3063 469.939 22.0558 466.055 22.466C462.238 22.8692 462.06 27.0368 462.005 30C461.873 36.9947 462 44.004 462 51C462 53.8024 461.265 57.9805 462.603 60.5509C463.671 62.6033 466.329 62.6032 467.397 60.5509C468.492 58.4473 467.999 55.2848 468 53L468 45L468 33M514.603 23.0278C511.061 25.8332 513 36.9132 513 41C513 46.3081 511.17 55.7712 513.603 60.5664C514.942 63.2043 518.491 62.9612 521 62.9961C527.963 63.093 535.139 62.8244 540.815 58.2106C549.7 50.9881 549.993 35.2918 541.671 27.5293C537.448 23.59 531.621 22.1545 526 22.0147C522.922 21.9381 517.182 20.9854 514.603 23.0278M550.228 22.7863C544.603 25.0031 547.834 34.53 553.856 32.2137C559.568 30.0162 556.281 20.4007 550.228 22.7863M47.662 25.0278C44.7759 27.6773 50.3316 32.3135 52.0008 33.9606C58.8794 40.7484 66.0161 47.3017 73 53.9807C75.0799 55.9698 79.143 60.3506 82.142 57.3773C85.2357 54.3101 83.1781 49.707 80.8519 47.0147C77.6461 43.3044 73.5065 40.4059 70 36.9853C66.1869 33.2656 62.5653 28.5636 58 25.7423C55.586 24.2505 50.1162 22.7748 47.662 25.0278z"/>
<path style="fill:#ffffff; stroke:none;" d="M549 25C548.401 29.097 550.033 30.3679 554 31C552.723 29.2746 552.315 28.2207 551 30L549 25z"/>
<path style="fill:#25255a; stroke:none;" d="M2.43364 27.0864C-1.77075 29.4778 0.806255 35.2609 3.13349 37.8302C9.55556 44.9204 16.5968 51.7962 24 57.8665C26.8775 60.2259 31.7947 62.4013 35.5224 60.4005C39.8083 58.0999 32.6084 52.5809 30.9961 50.9853C24.3047 44.3628 17.8039 37.5261 11 31.0193C8.98324 29.0906 5.59145 25.2903 2.43364 27.0864z"/>
<path style="fill:#ffffff; stroke:none;" d="M551.667 26.3333C551.222 26.7777 552.278 26.7222 552.333 26.6667C552.778 26.2221 551.722 26.2778 551.667 26.3333M555 26C554.014 27.4785 554 27.2032 554 29C555.766 28.0214 555.955 27.7782 555 26M337 29L337 41C341.499 41 347.835 42.1086 351.891 39.821C355.588 37.7359 356.783 32.6482 352.771 30.179C348.716 27.6834 341.585 29 337 29M519 29L519 56C524.206 56 530.35 56.9188 534.895 53.8518C542.954 48.4139 542.844 35.028 533.985 30.4568C529.561 28.1742 523.817 29 519 29M431 32L426 46L437 46C436.138 40.9928 434.249 35.9361 431 32z"/>
<path style="fill:#dc2056; stroke:none;" d="M39 85C37.1598 79.6017 33.0088 76.7954 29 72.9606C24.5818 68.7343 20.4178 64.2456 16 60.0193C13.585 57.7089 9.01973 53.1963 5.60802 56.608C1.52766 60.6884 8.41697 66.3983 11.0008 69C19.8878 77.9486 25.8241 84.9636 39 85M39.2824 63.7863C35.7172 65.245 36.8805 69.5561 38.5285 72C41.6033 76.5595 49.4487 86.0296 55.8511 83.2531C59.2916 81.761 58.509 78.4932 56.6775 75.9992C53.7444 72.0054 45.1636 61.3799 39.2824 63.7863z"/>
</svg>
